G04 Layer: TopSolderMaskLayer*
G04 EasyEDA v6.5.5, 2022-06-29 11:53:04*
G04 45b2c0bde71c4c1c92ce3b501ee4c66e,9bf960991b9d4efa812b5d32ee5e6833,10*
G04 Gerber Generator version 0.2*
G04 Scale: 100 percent, Rotated: No, Reflected: No *
G04 Dimensions in millimeters *
G04 leading zeros omitted , absolute positions ,4 integer and 5 decimal *
%FSLAX45Y45*%
%MOMM*%

%ADD26C,1.5095*%
%ADD31C,3.3016*%
%ADD33C,1.3005*%

%LPD*%
D26*
X1022908Y8384971D02*
G01*
X882091Y8384971D01*
X1022908Y7214996D02*
G01*
X882091Y7214996D01*
G36*
X1930702Y8131540D02*
G01*
X1930654Y8131555D01*
X1830702Y8131555D01*
X1827654Y8132048D01*
X1824606Y8133572D01*
X1822574Y8135604D01*
X1821050Y8138652D01*
X1820542Y8141700D01*
X1820418Y8141715D01*
X1820418Y8266684D01*
X1820542Y8266699D01*
X1821050Y8269747D01*
X1822574Y8272795D01*
X1824606Y8274827D01*
X1827654Y8276351D01*
X1830702Y8276844D01*
X1930654Y8276844D01*
X1930702Y8276859D01*
X1933750Y8276351D01*
X1936798Y8274827D01*
X1938830Y8272795D01*
X1940354Y8269747D01*
X1940862Y8266699D01*
X1940813Y8266684D01*
X1940813Y8141715D01*
X1940862Y8141700D01*
X1940354Y8138652D01*
X1938830Y8135604D01*
X1936798Y8133572D01*
X1933750Y8132048D01*
G37*
G36*
X1650702Y8131540D02*
G01*
X1647654Y8132048D01*
X1644606Y8133572D01*
X1642574Y8135604D01*
X1641050Y8138652D01*
X1640542Y8141700D01*
X1640586Y8141715D01*
X1640586Y8266684D01*
X1640542Y8266699D01*
X1641050Y8269747D01*
X1642574Y8272795D01*
X1644606Y8274827D01*
X1647654Y8276351D01*
X1650702Y8276859D01*
X1650745Y8276844D01*
X1750702Y8276844D01*
X1753750Y8276351D01*
X1756798Y8274827D01*
X1758830Y8272795D01*
X1760354Y8269747D01*
X1760862Y8266699D01*
X1760981Y8266684D01*
X1760981Y8141715D01*
X1760862Y8141700D01*
X1760354Y8138652D01*
X1758830Y8135604D01*
X1756798Y8133572D01*
X1753750Y8132048D01*
X1750702Y8131555D01*
X1650745Y8131555D01*
G37*
G36*
X2436528Y7250140D02*
G01*
X2433480Y7250648D01*
X2430432Y7252172D01*
X2428400Y7254204D01*
X2426876Y7257252D01*
X2426368Y7260300D01*
X2426461Y7260336D01*
X2426461Y7380223D01*
X2426368Y7380300D01*
X2426876Y7383348D01*
X2428400Y7386396D01*
X2430432Y7388428D01*
X2433480Y7389952D01*
X2436528Y7390460D01*
X2436622Y7390384D01*
X2626613Y7390384D01*
X2626530Y7390460D01*
X2629578Y7389952D01*
X2632626Y7388428D01*
X2634658Y7386396D01*
X2636182Y7383348D01*
X2636690Y7380300D01*
X2636774Y7380223D01*
X2636774Y7260336D01*
X2636690Y7260300D01*
X2636182Y7257252D01*
X2634658Y7254204D01*
X2632626Y7252172D01*
X2629578Y7250648D01*
X2626530Y7250140D01*
X2626613Y7250176D01*
X2436622Y7250176D01*
G37*
G36*
X2436528Y7570155D02*
G01*
X2433480Y7570663D01*
X2430432Y7572187D01*
X2428400Y7574219D01*
X2426876Y7577267D01*
X2426368Y7580315D01*
X2426461Y7580376D01*
X2426461Y7700263D01*
X2426368Y7700314D01*
X2426876Y7703362D01*
X2428400Y7706410D01*
X2430432Y7708442D01*
X2433480Y7709966D01*
X2436528Y7710474D01*
X2436622Y7710423D01*
X2626613Y7710423D01*
X2626530Y7710474D01*
X2629578Y7709966D01*
X2632626Y7708442D01*
X2634658Y7706410D01*
X2636182Y7703362D01*
X2636690Y7700314D01*
X2636774Y7700263D01*
X2636774Y7580376D01*
X2636690Y7580315D01*
X2636182Y7577267D01*
X2634658Y7574219D01*
X2632626Y7572187D01*
X2629578Y7570663D01*
X2626530Y7570155D01*
X2626613Y7570215D01*
X2436622Y7570215D01*
G37*
G36*
X2464028Y8025620D02*
G01*
X2462504Y8025874D01*
X2460980Y8026636D01*
X2459964Y8027652D01*
X2459202Y8029176D01*
X2458948Y8030700D01*
X2458974Y8030718D01*
X2458974Y8171687D01*
X2458948Y8171700D01*
X2459202Y8173224D01*
X2459964Y8174748D01*
X2460980Y8175764D01*
X2462504Y8176526D01*
X2464028Y8176780D01*
X2464054Y8176768D01*
X2598927Y8176768D01*
X2599029Y8176780D01*
X2600553Y8176526D01*
X2602077Y8175764D01*
X2603093Y8174748D01*
X2603855Y8173224D01*
X2604109Y8171700D01*
X2604008Y8171687D01*
X2604008Y8030718D01*
X2604109Y8030700D01*
X2603855Y8029176D01*
X2603093Y8027652D01*
X2602077Y8026636D01*
X2600553Y8025874D01*
X2599029Y8025620D01*
X2598927Y8025637D01*
X2464054Y8025637D01*
G37*
G36*
X2464028Y8231619D02*
G01*
X2462504Y8231873D01*
X2460980Y8232635D01*
X2459964Y8233651D01*
X2459202Y8235175D01*
X2458948Y8236699D01*
X2458974Y8236712D01*
X2458974Y8377681D01*
X2458948Y8377699D01*
X2459202Y8379223D01*
X2459964Y8380747D01*
X2460980Y8381763D01*
X2462504Y8382525D01*
X2464028Y8382779D01*
X2464054Y8382762D01*
X2598927Y8382762D01*
X2599029Y8382779D01*
X2600553Y8382525D01*
X2602077Y8381763D01*
X2603093Y8380747D01*
X2603855Y8379223D01*
X2604109Y8377699D01*
X2604008Y8377681D01*
X2604008Y8236712D01*
X2604109Y8236699D01*
X2603855Y8235175D01*
X2603093Y8233651D01*
X2602077Y8232635D01*
X2600553Y8231873D01*
X2599029Y8231619D01*
X2598927Y8231631D01*
X2464054Y8231631D01*
G37*
G36*
X1636776Y7410195D02*
G01*
X1635252Y7410450D01*
X1633728Y7411212D01*
X1632712Y7412228D01*
X1631950Y7413752D01*
X1631695Y7415276D01*
X1631695Y7545323D01*
X1631950Y7546847D01*
X1632712Y7548371D01*
X1633728Y7549387D01*
X1635252Y7550150D01*
X1636776Y7550404D01*
X1756663Y7550404D01*
X1758187Y7550150D01*
X1759712Y7549387D01*
X1760728Y7548371D01*
X1761489Y7546847D01*
X1761744Y7545323D01*
X1761744Y7415276D01*
X1761489Y7413752D01*
X1760728Y7412228D01*
X1759712Y7411212D01*
X1758187Y7410450D01*
X1756663Y7410195D01*
G37*
G36*
X1824736Y7410195D02*
G01*
X1823212Y7410450D01*
X1821687Y7411212D01*
X1820671Y7412228D01*
X1819910Y7413752D01*
X1819655Y7415276D01*
X1819655Y7545323D01*
X1819910Y7546847D01*
X1820671Y7548371D01*
X1821687Y7549387D01*
X1823212Y7550150D01*
X1824736Y7550404D01*
X1944624Y7550404D01*
X1946148Y7550150D01*
X1947672Y7549387D01*
X1948688Y7548371D01*
X1949450Y7546847D01*
X1949704Y7545323D01*
X1949704Y7545323D01*
X1949704Y7415276D01*
X1949704Y7415276D01*
X1949450Y7413752D01*
X1948688Y7412228D01*
X1947672Y7411212D01*
X1946148Y7410450D01*
X1944624Y7410195D01*
G37*
G36*
X1097534Y7754873D02*
G01*
X1097508Y7754901D01*
X1095984Y7755155D01*
X1094460Y7755917D01*
X1093444Y7756933D01*
X1092682Y7758457D01*
X1092428Y7759981D01*
X1092454Y7759954D01*
X1092454Y7839963D01*
X1092428Y7839991D01*
X1092682Y7841515D01*
X1093444Y7843039D01*
X1094460Y7844055D01*
X1095984Y7844817D01*
X1097508Y7845071D01*
X1097534Y7845044D01*
X1375410Y7845044D01*
X1375511Y7845071D01*
X1377035Y7844817D01*
X1378559Y7844055D01*
X1379575Y7843039D01*
X1380337Y7841515D01*
X1380591Y7839991D01*
X1380489Y7839963D01*
X1380489Y7759954D01*
X1380591Y7759981D01*
X1380337Y7758457D01*
X1379575Y7756933D01*
X1378559Y7755917D01*
X1377035Y7755155D01*
X1375511Y7754901D01*
X1375410Y7754873D01*
G37*
G36*
X1097534Y7654797D02*
G01*
X1097508Y7654902D01*
X1095984Y7655156D01*
X1094460Y7655918D01*
X1093444Y7656934D01*
X1092682Y7658458D01*
X1092428Y7659982D01*
X1092454Y7659878D01*
X1092454Y7739887D01*
X1092428Y7739992D01*
X1092682Y7741516D01*
X1093444Y7743040D01*
X1094460Y7744056D01*
X1095984Y7744818D01*
X1097508Y7745072D01*
X1097534Y7744968D01*
X1375410Y7744968D01*
X1375511Y7745072D01*
X1377035Y7744818D01*
X1378559Y7744056D01*
X1379575Y7743040D01*
X1380337Y7741516D01*
X1380591Y7739992D01*
X1380489Y7739887D01*
X1380489Y7659878D01*
X1380591Y7659982D01*
X1380337Y7658458D01*
X1379575Y7656934D01*
X1378559Y7655918D01*
X1377035Y7655156D01*
X1375511Y7654902D01*
X1375410Y7654797D01*
G37*
G36*
X1097508Y7554902D02*
G01*
X1095984Y7555156D01*
X1094460Y7555918D01*
X1093444Y7556934D01*
X1092682Y7558458D01*
X1092428Y7559982D01*
X1092454Y7560055D01*
X1092454Y7640065D01*
X1092428Y7639992D01*
X1092682Y7641516D01*
X1093444Y7643040D01*
X1094460Y7644056D01*
X1095984Y7644818D01*
X1097508Y7645072D01*
X1097534Y7645145D01*
X1375410Y7645145D01*
X1375511Y7645072D01*
X1377035Y7644818D01*
X1378559Y7644056D01*
X1379575Y7643040D01*
X1380337Y7641516D01*
X1380591Y7639992D01*
X1380489Y7640065D01*
X1380489Y7560055D01*
X1380591Y7559982D01*
X1380337Y7558458D01*
X1379575Y7556934D01*
X1378559Y7555918D01*
X1377035Y7555156D01*
X1375511Y7554902D01*
X1375410Y7554976D01*
X1097534Y7554976D01*
G37*
G36*
X1097534Y7454900D02*
G01*
X1097508Y7454902D01*
X1095984Y7455156D01*
X1094460Y7455918D01*
X1093444Y7456934D01*
X1092682Y7458458D01*
X1092428Y7459982D01*
X1092454Y7459979D01*
X1092454Y7539989D01*
X1092428Y7539992D01*
X1092682Y7541516D01*
X1093444Y7543040D01*
X1094460Y7544056D01*
X1095984Y7544818D01*
X1097508Y7545072D01*
X1097534Y7545070D01*
X1375410Y7545070D01*
X1375511Y7545072D01*
X1377035Y7544818D01*
X1378559Y7544056D01*
X1379575Y7543040D01*
X1380337Y7541516D01*
X1380591Y7539992D01*
X1380489Y7539989D01*
X1380489Y7459979D01*
X1380591Y7459982D01*
X1380337Y7458458D01*
X1379575Y7456934D01*
X1378559Y7455918D01*
X1377035Y7455156D01*
X1375511Y7454902D01*
X1375410Y7454900D01*
G37*
G36*
X1097534Y7354823D02*
G01*
X1097508Y7354902D01*
X1095984Y7355156D01*
X1094460Y7355918D01*
X1093444Y7356934D01*
X1092682Y7358458D01*
X1092428Y7359982D01*
X1092454Y7359904D01*
X1092454Y7439913D01*
X1092428Y7439992D01*
X1092682Y7441516D01*
X1093444Y7443040D01*
X1094460Y7444056D01*
X1095984Y7444818D01*
X1097508Y7445072D01*
X1097534Y7444994D01*
X1375410Y7444994D01*
X1375511Y7445072D01*
X1377035Y7444818D01*
X1378559Y7444056D01*
X1379575Y7443040D01*
X1380337Y7441516D01*
X1380591Y7439992D01*
X1380489Y7439913D01*
X1380489Y7359904D01*
X1380591Y7359982D01*
X1380337Y7358458D01*
X1379575Y7356934D01*
X1378559Y7355918D01*
X1377035Y7355156D01*
X1375511Y7354902D01*
X1375410Y7354823D01*
G37*
G36*
X1097508Y7854901D02*
G01*
X1095984Y7855155D01*
X1094460Y7855917D01*
X1093444Y7856933D01*
X1092682Y7858457D01*
X1092428Y7859981D01*
X1092454Y7860029D01*
X1092454Y7940039D01*
X1092428Y7939991D01*
X1092682Y7941515D01*
X1093444Y7943039D01*
X1094460Y7944055D01*
X1095984Y7944817D01*
X1097508Y7945071D01*
X1097534Y7945120D01*
X1375410Y7945120D01*
X1375511Y7945071D01*
X1377035Y7944817D01*
X1378559Y7944055D01*
X1379575Y7943039D01*
X1380337Y7941515D01*
X1380591Y7939991D01*
X1380489Y7940039D01*
X1380489Y7860029D01*
X1380591Y7859981D01*
X1380337Y7858457D01*
X1379575Y7856933D01*
X1378559Y7855917D01*
X1377035Y7855155D01*
X1375511Y7854901D01*
X1375410Y7854950D01*
X1097534Y7854950D01*
G37*
G36*
X1097508Y7954901D02*
G01*
X1095984Y7955155D01*
X1094460Y7955917D01*
X1093444Y7956933D01*
X1092682Y7958457D01*
X1092428Y7959981D01*
X1092454Y7960105D01*
X1092454Y8040115D01*
X1092428Y8039991D01*
X1092682Y8041515D01*
X1093444Y8043039D01*
X1094460Y8044055D01*
X1095984Y8044817D01*
X1097508Y8045071D01*
X1097534Y8045195D01*
X1375410Y8045195D01*
X1375511Y8045071D01*
X1377035Y8044817D01*
X1378559Y8044055D01*
X1379575Y8043039D01*
X1380337Y8041515D01*
X1380591Y8039991D01*
X1380489Y8040115D01*
X1380489Y7960105D01*
X1380591Y7959981D01*
X1380337Y7958457D01*
X1379575Y7956933D01*
X1378559Y7955917D01*
X1377035Y7955155D01*
X1375511Y7954901D01*
X1375410Y7955026D01*
X1097534Y7955026D01*
G37*
G36*
X1097534Y8054847D02*
G01*
X1097508Y8054901D01*
X1095984Y8055155D01*
X1094460Y8055917D01*
X1093444Y8056933D01*
X1092682Y8058457D01*
X1092428Y8059981D01*
X1092454Y8059928D01*
X1092454Y8139937D01*
X1092428Y8139991D01*
X1092682Y8141515D01*
X1093444Y8143039D01*
X1094460Y8144055D01*
X1095984Y8144817D01*
X1097508Y8145071D01*
X1097534Y8145018D01*
X1375410Y8145018D01*
X1375511Y8145071D01*
X1377035Y8144817D01*
X1378559Y8144055D01*
X1379575Y8143039D01*
X1380337Y8141515D01*
X1380591Y8139991D01*
X1380489Y8139937D01*
X1380489Y8059928D01*
X1380591Y8059981D01*
X1380337Y8058457D01*
X1379575Y8056933D01*
X1378559Y8055917D01*
X1377035Y8055155D01*
X1375511Y8054901D01*
X1375410Y8054847D01*
G37*
G36*
X1097508Y8154901D02*
G01*
X1095984Y8155155D01*
X1094460Y8155917D01*
X1093444Y8156933D01*
X1092682Y8158457D01*
X1092428Y8159981D01*
X1092454Y8160004D01*
X1092454Y8240013D01*
X1092428Y8239991D01*
X1092682Y8241515D01*
X1093444Y8243039D01*
X1094460Y8244055D01*
X1095984Y8244817D01*
X1097508Y8245071D01*
X1097534Y8245094D01*
X1375410Y8245094D01*
X1375511Y8245071D01*
X1377035Y8244817D01*
X1378559Y8244055D01*
X1379575Y8243039D01*
X1380337Y8241515D01*
X1380591Y8239991D01*
X1380489Y8240013D01*
X1380489Y8160004D01*
X1380591Y8159981D01*
X1380337Y8158457D01*
X1379575Y8156933D01*
X1378559Y8155917D01*
X1377035Y8155155D01*
X1375511Y8154901D01*
X1375410Y8154923D01*
X1097534Y8154923D01*
G37*
D31*
G01*
X3454400Y7093102D03*
G01*
X3454400Y8506866D03*
G36*
X3194558Y7384795D02*
G01*
X3194456Y7384897D01*
X3192932Y7385151D01*
X3191408Y7385913D01*
X3190392Y7386929D01*
X3189630Y7388453D01*
X3189376Y7389977D01*
X3189477Y7389876D01*
X3189477Y7510018D01*
X3189376Y7509967D01*
X3189630Y7511491D01*
X3190392Y7513015D01*
X3191408Y7514031D01*
X3192932Y7514793D01*
X3194456Y7515047D01*
X3194558Y7515097D01*
X3314445Y7515097D01*
X3314344Y7515047D01*
X3315868Y7514793D01*
X3317392Y7514031D01*
X3318408Y7513015D01*
X3319170Y7511491D01*
X3319424Y7509967D01*
X3319525Y7510018D01*
X3319525Y7389876D01*
X3319424Y7389977D01*
X3319170Y7388453D01*
X3318408Y7386929D01*
X3317392Y7385913D01*
X3315868Y7385151D01*
X3314344Y7384897D01*
X3314445Y7384795D01*
G37*
D33*
G01*
X3254502Y7699908D03*
G01*
X3254502Y7900060D03*
G01*
X3254502Y8149996D03*
G01*
X3104388Y7399934D03*
G01*
X3104388Y7600086D03*
G01*
X3104388Y7799984D03*
G01*
X3104388Y7999882D03*
G01*
X3104388Y8200034D03*
M02*
