G04 Layer: TopPasteMaskLayer*
G04 EasyEDA v6.5.5, 2022-06-29 11:53:04*
G04 45b2c0bde71c4c1c92ce3b501ee4c66e,9bf960991b9d4efa812b5d32ee5e6833,10*
G04 Gerber Generator version 0.2*
G04 Scale: 100 percent, Rotated: No, Reflected: No *
G04 Dimensions in millimeters *
G04 leading zeros omitted , absolute positions ,4 integer and 5 decimal *
%FSLAX45Y45*%
%MOMM*%

%ADD13R,1.0000X1.2500*%
%ADD14R,1.9000X1.2000*%

%LPD*%
G36*
X2469540Y8371687D02*
G01*
X2464511Y8366709D01*
X2464511Y8251698D01*
X2469540Y8246719D01*
X2511552Y8247176D01*
X2511552Y8291220D01*
X2556510Y8291220D01*
X2556510Y8246211D01*
X2597556Y8246719D01*
X2602534Y8251698D01*
X2602534Y8366709D01*
X2597556Y8371687D01*
G37*
G36*
X2469540Y8156702D02*
G01*
X2464511Y8151723D01*
X2464511Y8036712D01*
X2469540Y8031683D01*
X2597556Y8031683D01*
X2602534Y8036712D01*
X2602534Y8151723D01*
X2597556Y8156702D01*
X2556510Y8156194D01*
X2556510Y8112201D01*
X2511552Y8112201D01*
X2511552Y8156702D01*
G37*
D13*
G01*
X1880692Y8204200D03*
G01*
X1700707Y8204200D03*
D14*
G01*
X2531516Y7320305D03*
G01*
X2531516Y7640320D03*
G36*
X1636776Y7545323D02*
G01*
X1756663Y7545323D01*
X1756663Y7415276D01*
X1636776Y7415276D01*
G37*
G36*
X1824736Y7545323D02*
G01*
X1944624Y7545323D01*
X1944624Y7415276D01*
X1824736Y7415276D01*
G37*
G36*
X1375511Y7839991D02*
G01*
X1375511Y7759981D01*
X1097508Y7759981D01*
X1097508Y7839991D01*
G37*
G36*
X1375511Y7739992D02*
G01*
X1375511Y7659982D01*
X1097508Y7659982D01*
X1097508Y7739992D01*
G37*
G36*
X1375511Y7639992D02*
G01*
X1375511Y7559982D01*
X1097508Y7559982D01*
X1097508Y7639992D01*
G37*
G36*
X1375511Y7539992D02*
G01*
X1375511Y7459982D01*
X1097508Y7459982D01*
X1097508Y7539992D01*
G37*
G36*
X1375511Y7439992D02*
G01*
X1375511Y7359982D01*
X1097508Y7359982D01*
X1097508Y7439992D01*
G37*
G36*
X1375511Y7939991D02*
G01*
X1375511Y7859981D01*
X1097508Y7859981D01*
X1097508Y7939991D01*
G37*
G36*
X1375511Y8039991D02*
G01*
X1375511Y7959981D01*
X1097508Y7959981D01*
X1097508Y8039991D01*
G37*
G36*
X1375511Y8139991D02*
G01*
X1375511Y8059981D01*
X1097508Y8059981D01*
X1097508Y8139991D01*
G37*
G36*
X1375511Y8239991D02*
G01*
X1375511Y8159981D01*
X1097508Y8159981D01*
X1097508Y8239991D01*
G37*
M02*
