G04 Layer: TopLayer*
G04 EasyEDA v6.5.5, 2022-06-29 11:53:04*
G04 45b2c0bde71c4c1c92ce3b501ee4c66e,9bf960991b9d4efa812b5d32ee5e6833,10*
G04 Gerber Generator version 0.2*
G04 Scale: 100 percent, Rotated: No, Reflected: No *
G04 Dimensions in millimeters *
G04 leading zeros omitted , absolute positions ,4 integer and 5 decimal *
%FSLAX45Y45*%
%MOMM*%

%ADD10C,0.2540*%
%ADD11C,0.5000*%
%ADD12C,0.6100*%
%ADD13R,1.0000X1.2500*%
%ADD14R,1.9000X1.2000*%
%ADD15R,1.3500X1.4100*%
%ADD17C,3.2000*%
%ADD19C,1.1989*%
%ADD20C,1.4079*%

%LPD*%
D11*
X2196873Y7640297D02*
G01*
X2531518Y7640297D01*
X1980719Y8204202D02*
G01*
X2031900Y8204202D01*
X2134897Y8307199D01*
X2531518Y8307199D01*
X1880694Y8204202D02*
G01*
X1980719Y8204202D01*
X2590294Y8307199D02*
G01*
X2531518Y8307199D01*
X2590294Y8307199D02*
G01*
X2649044Y8307199D01*
X1880694Y8204202D02*
G01*
X1880694Y8091680D01*
X1236499Y8099986D02*
G01*
X1425526Y8099986D01*
X1425526Y8099986D02*
G01*
X1433832Y8091680D01*
X1880694Y8091680D01*
X3254504Y8149998D02*
G01*
X3254504Y8209180D01*
X3153666Y8310018D01*
X2651864Y8310018D01*
X2649044Y8307199D01*
X1600685Y8204202D02*
G01*
X1593827Y8204202D01*
X1700710Y8204202D02*
G01*
X1600685Y8204202D01*
X1545694Y7499987D02*
G01*
X1567080Y7499987D01*
X1586765Y7480302D01*
X1236499Y7499987D02*
G01*
X1545694Y7499987D01*
X1696722Y7480302D02*
G01*
X1586765Y7480302D01*
X2531518Y8101205D02*
G01*
X2649044Y8101205D01*
X2754861Y8096506D02*
G01*
X2653743Y8096506D01*
X2649044Y8101205D01*
X1884682Y7480302D02*
G01*
X1994639Y7480302D01*
X1994639Y7480302D02*
G01*
X2154659Y7320282D01*
X2531518Y7320282D01*
X2531518Y7320282D02*
G01*
X2676527Y7320282D01*
X3254402Y7449974D02*
G01*
X3254402Y7339967D01*
X3254402Y7339967D02*
G01*
X3203958Y7289523D01*
X2707286Y7289523D01*
X2676527Y7320282D01*
D10*
X1236499Y7399987D02*
G01*
X1403428Y7399987D01*
X3032229Y7166053D02*
G01*
X1637362Y7166053D01*
X1403428Y7399987D01*
X2057986Y8344181D02*
G01*
X1547624Y8344181D01*
X1403428Y8199986D01*
X1236499Y8199986D02*
G01*
X1403428Y8199986D01*
X3454402Y8506868D02*
G01*
X2402131Y8506868D01*
X2300124Y8404862D01*
X972390Y8404862D01*
X952502Y8384974D01*
X1236499Y7799986D02*
G01*
X1403428Y7799986D01*
X3104390Y7799986D02*
G01*
X1403428Y7799986D01*
X3254504Y7699910D02*
G01*
X2740560Y7699910D01*
X2701165Y7739306D01*
X1912927Y7739306D01*
X1873608Y7699987D01*
X1236499Y7699987D01*
X1236499Y7599987D02*
G01*
X2126388Y7599987D01*
X2183818Y7542557D01*
X3046859Y7542557D01*
X3104390Y7600088D01*
X1236499Y7899986D02*
G01*
X3254428Y7899986D01*
X3254504Y7900062D01*
X1236499Y7999986D02*
G01*
X1403428Y7999986D01*
X3104390Y7999884D02*
G01*
X3097456Y7992950D01*
X1410464Y7992950D01*
X1403428Y7999986D01*
D13*
G01*
X1880692Y8204200D03*
G01*
X1700707Y8204200D03*
D14*
G01*
X2531516Y7320305D03*
G01*
X2531516Y7640320D03*
G36*
X2464028Y8171700D02*
G01*
X2599029Y8171700D01*
X2599029Y8030700D01*
X2464028Y8030700D01*
G37*
D15*
G01*
X2531516Y8307196D03*
G36*
X1636776Y7545323D02*
G01*
X1756663Y7545323D01*
X1756663Y7415276D01*
X1636776Y7415276D01*
G37*
G36*
X1824736Y7545323D02*
G01*
X1944624Y7545323D01*
X1944624Y7415276D01*
X1824736Y7415276D01*
G37*
G36*
X1375511Y7839991D02*
G01*
X1375511Y7759981D01*
X1097508Y7759981D01*
X1097508Y7839991D01*
G37*
G36*
X1375511Y7739992D02*
G01*
X1375511Y7659982D01*
X1097508Y7659982D01*
X1097508Y7739992D01*
G37*
G36*
X1375511Y7639992D02*
G01*
X1375511Y7559982D01*
X1097508Y7559982D01*
X1097508Y7639992D01*
G37*
G36*
X1375511Y7539992D02*
G01*
X1375511Y7459982D01*
X1097508Y7459982D01*
X1097508Y7539992D01*
G37*
G36*
X1375511Y7439992D02*
G01*
X1375511Y7359982D01*
X1097508Y7359982D01*
X1097508Y7439992D01*
G37*
G36*
X1375511Y7939991D02*
G01*
X1375511Y7859981D01*
X1097508Y7859981D01*
X1097508Y7939991D01*
G37*
G36*
X1375511Y8039991D02*
G01*
X1375511Y7959981D01*
X1097508Y7959981D01*
X1097508Y8039991D01*
G37*
G36*
X1375511Y8139991D02*
G01*
X1375511Y8059981D01*
X1097508Y8059981D01*
X1097508Y8139991D01*
G37*
G36*
X1375511Y8239991D02*
G01*
X1375511Y8159981D01*
X1097508Y8159981D01*
X1097508Y8239991D01*
G37*
D17*
G01*
X3454400Y7093102D03*
G01*
X3454400Y8506866D03*
G36*
X3194456Y7389977D02*
G01*
X3194456Y7509967D01*
X3314344Y7509967D01*
X3314344Y7389977D01*
G37*
D19*
G01*
X3254502Y7699908D03*
G01*
X3254502Y7900060D03*
G01*
X3254502Y8149996D03*
G01*
X3104388Y7399934D03*
G01*
X3104388Y7600086D03*
G01*
X3104388Y7799984D03*
G01*
X3104388Y7999882D03*
G01*
X3104388Y8200034D03*
D12*
G01*
X2196871Y7640294D03*
G01*
X1593824Y8204200D03*
G01*
X1545691Y7499985D03*
G01*
X2754858Y8096504D03*
G01*
X3032226Y7166051D03*
G01*
X2057984Y8344179D03*
D20*
X1022908Y8384971D02*
G01*
X882091Y8384971D01*
X1022908Y7214996D02*
G01*
X882091Y7214996D01*
M02*
