<svg xmlns="http://www.w3.org/2000/svg" xmlns:xlink="http://www.w3.org/1999/xlink" width="60.046mm" height="25.07mm" viewBox="3976.6 3036.5 236.4 98.7"><title></title><style type="text/css">
*[layerid="1"] {stroke:#FF0000;fill:#FF0000;}
*[layerid="2"] {stroke:#0000FF;fill:#0000FF;}
*[layerid="3"] {stroke:#FFCC00;fill:#FFCC00;}
*[layerid="4"] {stroke:#66CC33;fill:#66CC33;}
*[layerid="5"] {stroke:#808080;fill:#808080;}
*[layerid="6"] {stroke:#800000;fill:#800000;}
*[layerid="7"] {stroke:#800080;fill:#800080;stroke-opacity:0.7;fill-opacity:0.7;}
*[layerid="8"] {stroke:#AA00FF;fill:#AA00FF;stroke-opacity:0.7;fill-opacity:0.7;}
*[layerid="9"] {stroke:#6464FF;fill:#6464FF;}
*[layerid="10"] {stroke:#FF00FF;fill:#FF00FF;}
*[layerid="11"] {stroke:#C0C0C0;fill:#C0C0C0;}
*[layerid="12"] {stroke:#FFFFFF;fill:#FFFFFF;}
*[layerid="13"] {stroke:#33CC99;fill:#33CC99;}
*[layerid="14"] {stroke:#5555FF;fill:#5555FF;}
*[layerid="15"] {stroke:#F022F0;fill:#F022F0;}
*[layerid="19"] {stroke:#66CCFF;fill:#66CCFF;}
*[layerid="21"] {stroke:#999966;fill:#999966;}
*[layerid="22"] {stroke:#008000;fill:#008000;}
*[layerid="23"] {stroke:#00FF00;fill:#00FF00;}
*[layerid="24"] {stroke:#BC8E00;fill:#BC8E00;}
*[layerid="25"] {stroke:#70DBFA;fill:#70DBFA;}
*[layerid="26"] {stroke:#00CC66;fill:#00CC66;}
*[layerid="27"] {stroke:#9966FF;fill:#9966FF;}
*[layerid="28"] {stroke:#800080;fill:#800080;}
*[layerid="29"] {stroke:#008080;fill:#008080;}
*[layerid="30"] {stroke:#15935F;fill:#15935F;}
*[layerid="31"] {stroke:#000080;fill:#000080;}
*[layerid="32"] {stroke:#00B400;fill:#00B400;}
*[layerid="33"] {stroke:#2E4756;fill:#2E4756;}
*[layerid="34"] {stroke:#99842F;fill:#99842F;}
*[layerid="35"] {stroke:#FFFFAA;fill:#FFFFAA;}
*[layerid="36"] {stroke:#99842F;fill:#99842F;}
*[layerid="37"] {stroke:#2E4756;fill:#2E4756;}
*[layerid="38"] {stroke:#3535FF;fill:#3535FF;}
*[layerid="39"] {stroke:#8000BC;fill:#8000BC;}
*[layerid="40"] {stroke:#43AE5F;fill:#43AE5F;}
*[layerid="41"] {stroke:#C3ECCE;fill:#C3ECCE;}
*[layerid="42"] {stroke:#728978;fill:#728978;}
*[layerid="43"] {stroke:#39503F;fill:#39503F;}
*[layerid="44"] {stroke:#0C715D;fill:#0C715D;}
*[layerid="45"] {stroke:#5A8A80;fill:#5A8A80;}
*[layerid="46"] {stroke:#2B937E;fill:#2B937E;}
*[layerid="47"] {stroke:#23999D;fill:#23999D;}
*[layerid="48"] {stroke:#45B4E3;fill:#45B4E3;}
*[layerid="49"] {stroke:#215DA1;fill:#215DA1;}
*[layerid="50"] {stroke:#4564D7;fill:#4564D7;}
*[layerid="51"] {stroke:#6969E9;fill:#6969E9;}
*[layerid="52"] {stroke:#9069E9;fill:#9069E9;}
*[layerid="99"] {stroke:#00CCCC;fill:#00CCCC;stroke-opacity:0.6;fill-opacity:0.6;}
*[layerid="100"] {stroke:#CC9999;fill:#CC9999;}
*[layerid="101"] {stroke:#66FFCC;fill:#66FFCC;}
*[layerid="Hole"] {stroke:#222222;fill:#222222;}
*[layerid="DRCError"] {stroke:#FAD609;fill:#FAD609;}
*[fill="none"] {fill: none;}
*[stroke="none"] {stroke: none;}
path, polyline, polygon, line {stroke-linecap:round;}
g[c_partid="part_pad"][layerid="1"] ellipse:not([c_etype="pad_outer"]) {fill:#FF0000;}
g[c_partid="part_pad"][layerid="1"] polygon:not([c_etype="pad_outer"]) {fill:#FF0000;}
g[c_partid="part_pad"][layerid="1"] polyline:not([c_etype="pad_outer"]) {stroke:#FF0000;}
g[c_partid="part_pad"][layerid="2"] ellipse:not([c_etype="pad_outer"]) {fill:#0000FF;}
g[c_partid="part_pad"][layerid="2"] polygon:not([c_etype="pad_outer"]) {fill:#0000FF;}
g[c_partid="part_pad"][layerid="2"] polyline:not([c_etype="pad_outer"]) {stroke:#0000FF;}
g[c_partid="part_pad"][layerid="11"] ellipse:not([c_etype="pad_outer"]) {fill:#C0C0C0;}
g[c_partid="part_pad"][layerid="11"] polygon:not([c_etype="pad_outer"]) {fill:#C0C0C0;}
g[c_partid="part_pad"][layerid="11"] polyline:not([c_etype="pad_outer"]) {stroke:#C0C0C0;}
g[c_partid="part_pad"][layerid="11"] circle {fill:#222222;}
g[c_partid="part_pad"][layerid="11"] > polyline:nth-of-type(2) {stroke:#222222;}
g[c_partid="part_pad"][layerid="11"][c_shape="ELLIPSE"]  polyline:nth-last-of-type(1) {stroke:#222222;}
g[c_partid="part_pad"][layerid="11"][c_shape="RECT"]  polyline:nth-last-of-type(1) {stroke:#222222;}
g[c_partid="part_pad"][layerid="11"][c_shape="POLYGON"]  polyline:nth-last-of-type(1) {stroke:#222222;}
g[c_partid="part_via"] > * + circle, #gCurParts g[c_partid="part_via"] > * + circle {fill:#222222;}
g[c_partid="part_pad"] > polygon[c_etype="pad_outer"], #gCurParts g[c_partid="part_pad"] > polygon[c_etype="pad_outer"] {stroke-linejoin: round;stroke-miterlimit: 100;}
g[c_partid="part_hole"] > circle {fill: #222222;}path, polyline, polygon {stroke-linejoin:round;}
rect, circle, ellipse, polyline, line, polygon, path {shape-rendering:crispEdges;}
</style>
<rect x="3976.6" y="3036.5" width="236.4" height="98.7" fill="#000000" stroke="none"/><g c_partid="part_pad" c_etype="pinpart" c_origin="4057.5,3062.883" layerid="11" number="S1" net="USB_OUT_10" plated ="Y"  id="gge381" locked="0" c_rotation="270" c_width="5.543" c_height="11.087" title="USB_OUT_10" c_shape="OVAL" pasteexpansion="0" solderexpansion="0.2"><path d="M4060.272 3062.883L4054.728 3062.883" layerid="8" stroke-width="5.9430000000000005" c_etype="pad_outer"/></g><g c_partid="part_pad" c_etype="pinpart" c_origin="4057.5,3108.945" layerid="11" number="S2" net="USB_OUT_10" plated ="Y"  id="gge396" locked="0" c_rotation="270" c_width="5.543" c_height="11.087" title="USB_OUT_10" c_shape="OVAL" pasteexpansion="0" solderexpansion="0.2"><path d="M4060.272 3108.945L4054.728 3108.945" layerid="8" stroke-width="5.9430000000000005" c_etype="pad_outer"/></g><g c_partid="part_pad" c_etype="pinpart" c_origin="4156,3113.744" layerid="11" number="10" net="USB_OUT_10" plated ="Y"  id="gge579" locked="0" c_rotation="90" c_width="12.5984" c_height="12.5984" title="USB_OUT_10" c_shape="ELLIPSE" pasteexpansion="0" solderexpansion="0.2"><ellipse cx="4156" cy="3113.744" rx="6.4992" ry="6.4992" layerid="8" stroke-width="0" c_etype="pad_outer"/></g><g c_partid="part_pad" c_etype="pinpart" c_origin="4156,3058.084" layerid="11" number="11" net="USB_OUT_10" plated ="Y"  id="gge594" locked="0" c_rotation="90" c_width="12.5984" c_height="12.5984" title="USB_OUT_10" c_shape="ELLIPSE" pasteexpansion="0" solderexpansion="0.2"><ellipse cx="4156" cy="3058.084" rx="6.4992" ry="6.4992" layerid="8" stroke-width="0" c_etype="pad_outer"/></g><g c_partid="part_pad" c_etype="pinpart" c_origin="4148.126,3099.694" layerid="11" number="1" net="USB_OUT_1" plated ="Y"  id="gge609" locked="0" c_rotation="90" c_width="4.72" c_height="4.72" title="USB_OUT_1" c_shape="RECT" pasteexpansion="0" solderexpansion="0.2"><polygon points="4145.766 3102.056 4145.766 3097.332 4150.486 3097.332 4150.486 3102.056" layerid="8" stroke-width="0.4" c_etype="pad_outer"/></g><g c_partid="part_pad" c_etype="pinpart" c_origin="4148.13,3089.854" layerid="11" number="2" net="USB_OUT_2" plated ="Y"  id="gge624" locked="0" c_rotation="90" c_width="4.72" c_height="4.72" title="USB_OUT_2" c_shape="ELLIPSE" pasteexpansion="0" solderexpansion="0.2"><ellipse cx="4148.13" cy="3089.854" rx="2.56" ry="2.56" layerid="8" stroke-width="0" c_etype="pad_outer"/></g><g c_partid="part_pad" c_etype="pinpart" c_origin="4148.13,3081.974" layerid="11" number="3" net="USB_OUT_3" plated ="Y"  id="gge639" locked="0" c_rotation="90" c_width="4.72" c_height="4.72" title="USB_OUT_3" c_shape="ELLIPSE" pasteexpansion="0" solderexpansion="0.2"><ellipse cx="4148.13" cy="3081.974" rx="2.56" ry="2.56" layerid="8" stroke-width="0" c_etype="pad_outer"/></g><g c_partid="part_pad" c_etype="pinpart" c_origin="4148.13,3072.134" layerid="11" number="4" net="USB_OUT_4" plated ="Y"  id="gge654" locked="0" c_rotation="90" c_width="4.72" c_height="4.72" title="USB_OUT_4" c_shape="ELLIPSE" pasteexpansion="0" solderexpansion="0.2"><ellipse cx="4148.13" cy="3072.134" rx="2.56" ry="2.56" layerid="8" stroke-width="0" c_etype="pad_outer"/></g><g c_partid="part_pad" c_etype="pinpart" c_origin="4142.22,3101.664" layerid="11" number="9" net="USB_OUT_9" plated ="Y"  id="gge669" locked="0" c_rotation="90" c_width="4.72" c_height="4.72" title="USB_OUT_9" c_shape="ELLIPSE" pasteexpansion="0" solderexpansion="0.2"><ellipse cx="4142.22" cy="3101.664" rx="2.56" ry="2.56" layerid="8" stroke-width="0" c_etype="pad_outer"/></g><g c_partid="part_pad" c_etype="pinpart" c_origin="4142.22,3093.784" layerid="11" number="8" net="USB_OUT_8" plated ="Y"  id="gge684" locked="0" c_rotation="90" c_width="4.72" c_height="4.72" title="USB_OUT_8" c_shape="ELLIPSE" pasteexpansion="0" solderexpansion="0.2"><ellipse cx="4142.22" cy="3093.784" rx="2.56" ry="2.56" layerid="8" stroke-width="0" c_etype="pad_outer"/></g><g c_partid="part_pad" c_etype="pinpart" c_origin="4142.22,3085.914" layerid="11" number="7" net="USB_OUT_7" plated ="Y"  id="gge699" locked="0" c_rotation="90" c_width="4.72" c_height="4.72" title="USB_OUT_7" c_shape="ELLIPSE" pasteexpansion="0" solderexpansion="0.2"><ellipse cx="4142.22" cy="3085.914" rx="2.56" ry="2.56" layerid="8" stroke-width="0" c_etype="pad_outer"/></g><g c_partid="part_pad" c_etype="pinpart" c_origin="4142.22,3078.044" layerid="11" number="6" net="USB_OUT_6" plated ="Y"  id="gge714" locked="0" c_rotation="90" c_width="4.72" c_height="4.72" title="USB_OUT_6" c_shape="ELLIPSE" pasteexpansion="0" solderexpansion="0.2"><ellipse cx="4142.22" cy="3078.044" rx="2.56" ry="2.56" layerid="8" stroke-width="0" c_etype="pad_outer"/></g><g c_partid="part_pad" c_etype="pinpart" c_origin="4142.22,3070.164" layerid="11" number="5" net="USB_OUT_5" plated ="Y"  id="gge729" locked="0" c_rotation="90" c_width="4.72" c_height="4.72" title="USB_OUT_5" c_shape="ELLIPSE" pasteexpansion="0" solderexpansion="0.2"><ellipse cx="4142.22" cy="3070.164" rx="2.56" ry="2.56" layerid="8" stroke-width="0" c_etype="pad_outer"/></g><polyline points="4156.0001 3058.0839 4156.0001 3113.7439" stroke-width="1"  stroke-linecap="round" fill="none" layerid="2" net="USB_OUT_10" id="gge1398" locked="0" /><polyline points="4057.5001 3108.9449 4053.5101 3104.9549 4053.5101 3066.8729 4057.5001 3062.8829" stroke-width="1"  stroke-linecap="round" fill="none" layerid="2" net="USB_OUT_10" id="gge1395" locked="0" /><polyline points="4142.2201 3070.1639 4106.6981 3070.1639 4101.0231 3064.4889" stroke-width="1"  stroke-linecap="round" fill="none" layerid="2" net="USB_OUT_5" id="gge1383" locked="0" /><polyline points="4142.2201 3101.6639 4139.3791 3104.5049 4139.3791 3110.8719" stroke-width="1"  stroke-linecap="round" fill="none" layerid="2" net="USB_OUT_9" id="gge1374" locked="0" /><polyline points="4148.1261 3099.6939 4148.1261 3107.2379 4141.0601 3114.3039 4138.0671 3114.3039 4128.4591 3104.6959 4128.4591 3074.2399" stroke-width="1.9685"  stroke-linecap="round" fill="none" layerid="2" net="USB_OUT_1" id="gge1347" locked="0" /><polyline points="4082.7491 3069.9999 4080.8551 3071.8939 4080.8551 3097.7249 4080.8541 3097.7249" stroke-width="1.9685"  stroke-linecap="round" fill="none" layerid="2" net="C1_2" id="gge1317" locked="0" /><polyline points="4148.1301 3072.1339 4148.1301 3069.7829 4127.8341 3049.4869 4103.9621 3049.4869 4097.2301 3056.2189 4097.2301 3082.9399 4106.4911 3092.2009" stroke-width="1.9685"  stroke-linecap="round" fill="none" layerid="2" net="USB_OUT_4" id="gge1287" locked="0" /><g c_partid="part_pcbtext" c_etype="pinpart" c_origin="4093,3121" c_rotation="0" c_mirror="1" id="gge1437" locked="0" layerid="2" c_shapetype="group" ><path c_fontsize="3.937" c_fontfamily="" c_text="JLCJLCJLCJLC" d="M 4091.2105 3117.0272 L 4091.2105 3119.8905 L 4091.3894 3120.4273 L 4091.5684 3120.6063 L 4091.9263 3120.7853 L 4092.2842 3120.7853 L 4092.6421 3120.6063 L 4092.821 3120.4273 L 4093 3119.8905 L 4093 3119.5326 M 4090.0294 3117.0272 L 4090.0294 3120.7853 M 4090.0294 3120.7853 L 4087.8819 3120.7853 M 4084.0165 3117.922 L 4084.1954 3117.5641 L 4084.5533 3117.2062 L 4084.9113 3117.0272 L 4085.6271 3117.0272 L 4085.985 3117.2062 L 4086.3429 3117.5641 L 4086.5218 3117.922 L 4086.7008 3118.4588 L 4086.7008 3119.3536 L 4086.5218 3119.8905 L 4086.3429 3120.2484 L 4085.985 3120.6063 L 4085.6271 3120.7853 L 4084.9113 3120.7853 L 4084.5533 3120.6063 L 4084.1954 3120.2484 L 4084.0165 3119.8905 M 4081.0458 3117.0272 L 4081.0458 3119.8905 L 4081.2248 3120.4273 L 4081.4037 3120.6063 L 4081.7617 3120.7853 L 4082.1196 3120.7853 L 4082.4775 3120.6063 L 4082.6564 3120.4273 L 4082.8354 3119.8905 L 4082.8354 3119.5326 M 4079.8647 3117.0272 L 4079.8647 3120.7853 M 4079.8647 3120.7853 L 4077.7173 3120.7853 M 4073.8519 3117.922 L 4074.0308 3117.5641 L 4074.3887 3117.2062 L 4074.7466 3117.0272 L 4075.4625 3117.0272 L 4075.8204 3117.2062 L 4076.1783 3117.5641 L 4076.3572 3117.922 L 4076.5362 3118.4588 L 4076.5362 3119.3536 L 4076.3572 3119.8905 L 4076.1783 3120.2484 L 4075.8204 3120.6063 L 4075.4625 3120.7853 L 4074.7466 3120.7853 L 4074.3887 3120.6063 L 4074.0308 3120.2484 L 4073.8519 3119.8905 M 4070.8812 3117.0272 L 4070.8812 3119.8905 L 4071.0602 3120.4273 L 4071.2391 3120.6063 L 4071.597 3120.7853 L 4071.9549 3120.7853 L 4072.3129 3120.6063 L 4072.4918 3120.4273 L 4072.6708 3119.8905 L 4072.6708 3119.5326 M 4069.7001 3117.0272 L 4069.7001 3120.7853 M 4069.7001 3120.7853 L 4067.5527 3120.7853 M 4063.6872 3117.922 L 4063.8662 3117.5641 L 4064.2241 3117.2062 L 4064.582 3117.0272 L 4065.2978 3117.0272 L 4065.6557 3117.2062 L 4066.0137 3117.5641 L 4066.1926 3117.922 L 4066.3716 3118.4588 L 4066.3716 3119.3536 L 4066.1926 3119.8905 L 4066.0137 3120.2484 L 4065.6557 3120.6063 L 4065.2978 3120.7853 L 4064.582 3120.7853 L 4064.2241 3120.6063 L 4063.8662 3120.2484 L 4063.6872 3119.8905 M 4060.7166 3117.0272 L 4060.7166 3119.8905 L 4060.8956 3120.4273 L 4061.0745 3120.6063 L 4061.4324 3120.7853 L 4061.7903 3120.7853 L 4062.1482 3120.6063 L 4062.3272 3120.4273 L 4062.5061 3119.8905 L 4062.5061 3119.5326 M 4059.5355 3117.0272 L 4059.5355 3120.7853 M 4059.5355 3120.7853 L 4057.388 3120.7853 M 4053.5226 3117.922 L 4053.7016 3117.5641 L 4054.0595 3117.2062 L 4054.4174 3117.0272 L 4055.1332 3117.0272 L 4055.4911 3117.2062 L 4055.849 3117.5641 L 4056.028 3117.922 L 4056.2069 3118.4588 L 4056.2069 3119.3536 L 4056.028 3119.8905 L 4055.849 3120.2484 L 4055.4911 3120.6063 L 4055.1332 3120.7853 L 4054.4174 3120.7853 L 4054.0595 3120.6063 L 4053.7016 3120.2484 L 4053.5226 3119.8905" fill="none"  stroke-width="0.8"  /></g><g c_partid="part_pad" c_etype="pinpart" c_origin="4094.043,3070" layerid="1" number="1" net="USB_OUT_4" plated ="Y"  id="gge27" locked="0" c_rotation="180" c_width="3.937" c_height="4.9213" title="USB_OUT_4" c_shape="RECT" pasteexpansion="0" solderexpansion="0.4"><polygon points="4096.0119 3072.4606 4092.0749 3072.4606 4092.0749 3067.5394 4096.0119 3067.5394" layerid="7" stroke-width="0.8" c_etype="pad_outer"/></g><g c_partid="part_pad" c_etype="pinpart" c_origin="4086.957,3070" layerid="1" number="2" net="C1_2" plated ="Y"  id="gge42" locked="0" c_rotation="180" c_width="3.937" c_height="4.9213" title="C1_2" c_shape="RECT" pasteexpansion="0" solderexpansion="0.4"><polygon points="4088.9253 3072.4606 4084.9883 3072.4606 4084.9883 3067.5394 4088.9253 3067.5394" layerid="7" stroke-width="0.8" c_etype="pad_outer"/></g><g c_partid="part_pad" c_etype="pinpart" c_origin="4119.666,3104.799" layerid="1" number="1" net="USB_OUT_1" plated ="Y"  id="gge123" locked="0" c_rotation="90" c_width="4.7244" c_height="7.4803" title="USB_OUT_1" c_shape="RECT" pasteexpansion="0" solderexpansion="0.4"><polygon points="4115.9263 3107.1614 4115.9263 3102.437 4123.4067 3102.437 4123.4067 3107.1614" layerid="7" stroke-width="0.8" c_etype="pad_outer"/></g><g c_partid="part_pad" c_etype="pinpart" c_origin="4119.666,3092.2" layerid="1" number="2" net="USB_OUT_4" plated ="Y"  id="gge138" locked="0" c_rotation="90" c_width="4.7244" c_height="7.4803" title="USB_OUT_4" c_shape="RECT" pasteexpansion="0" solderexpansion="0.4"><polygon points="4115.9263 3094.5624 4115.9263 3089.838 4123.4067 3089.838 4123.4067 3094.5624" layerid="7" stroke-width="0.8" c_etype="pad_outer"/></g><g c_partid="part_pad" c_etype="pinpart" c_origin="4119.666,3074.055" layerid="1" number="2" net="USB_OUT_1" plated ="Y"  id="gge225" locked="0" c_rotation="270" c_width="5.5512" c_height="5.315" title="USB_OUT_1" c_shape="RECT" pasteexpansion="-393.7008" solderexpansion="0.2000"><polygon points="4117.009 3071.2795 4122.324 3071.2795 4122.324 3076.8307 4117.009 3076.8307" layerid="7" stroke-width="0.4" c_etype="pad_outer"/></g><g c_partid="part_pad" c_etype="pinpart" c_origin="4119.666,3065.945" layerid="1" number="1" net="USB_OUT_4" plated ="Y"  id="gge240" locked="0" c_rotation="270" c_width="5.5512" c_height="5.315" title="USB_OUT_4" c_shape="RECT" pasteexpansion="-393.7008" solderexpansion="0.2000"><polygon points="4117.009 3068.7205 4122.324 3068.7205 4122.324 3063.1693 4117.009 3063.1693" layerid="7" stroke-width="0.4" c_etype="pad_outer"/></g><g c_partid="part_pad" c_etype="pinpart" c_origin="4086.8,3098.5" layerid="1" number="1" net="C1_2" plated ="Y"  id="gge291" locked="0" c_rotation="0" c_width="4.72" c_height="5.12" title="C1_2" c_shape="RECT" pasteexpansion="0" solderexpansion="0.2"><polygon points="4084.44 3095.94 4089.16 3095.94 4089.16 3101.06 4084.44 3101.06" layerid="7" stroke-width="0.4" c_etype="pad_outer"/></g><g c_partid="part_pad" c_etype="pinpart" c_origin="4094.2,3098.5" layerid="1" number="2" net="USB_OUT_1" plated ="Y"  id="gge306" locked="0" c_rotation="0" c_width="4.72" c_height="5.12" title="USB_OUT_1" c_shape="RECT" pasteexpansion="0" solderexpansion="0.2"><polygon points="4091.84 3095.94 4096.56 3095.94 4096.56 3101.06 4091.84 3101.06" layerid="7" stroke-width="0.4" c_etype="pad_outer"/></g><g c_partid="part_pad" c_etype="pinpart" c_origin="4068.681,3085.914" layerid="1" number="7" net="USB_OUT_7" plated ="Y"  id="gge411" locked="0" c_rotation="270" c_width="0" c_height="0" title="USB_OUT_7" c_shape="POLYGON" pasteexpansion="0" solderexpansion="0.2"><polygon points="4074.154 3084.3389 4074.154 3087.4889 4063.209 3087.4889 4063.209 3084.3389" layerid="7" stroke-width="0.4" c_etype="pad_outer"/></g><g c_partid="part_pad" c_etype="pinpart" c_origin="4068.681,3089.851" layerid="1" number="2" net="USB_OUT_2" plated ="Y"  id="gge426" locked="0" c_rotation="270" c_width="0" c_height="0" title="USB_OUT_2" c_shape="POLYGON" pasteexpansion="0" solderexpansion="0.2"><polygon points="4074.154 3088.2759 4074.154 3091.4259 4063.209 3091.4259 4063.209 3088.2759" layerid="7" stroke-width="0.4" c_etype="pad_outer"/></g><g c_partid="part_pad" c_etype="pinpart" c_origin="4068.681,3093.788" layerid="1" number="8" net="USB_OUT_8" plated ="Y"  id="gge441" locked="0" c_rotation="270" c_width="10.9451" c_height="3.1499" title="USB_OUT_8" c_shape="POLYGON" pasteexpansion="0" solderexpansion="0.2"><polygon points="4074.154 3092.2129 4074.154 3095.3629 4063.209 3095.3629 4063.209 3092.2129" layerid="7" stroke-width="0.4" c_etype="pad_outer"/></g><g c_partid="part_pad" c_etype="pinpart" c_origin="4068.681,3097.725" layerid="1" number="1" net="C1_2" plated ="Y"  id="gge456" locked="0" c_rotation="270" c_width="0" c_height="0" title="C1_2" c_shape="POLYGON" pasteexpansion="0" solderexpansion="0.2"><polygon points="4074.154 3096.1499 4074.154 3099.2999 4063.209 3099.2999 4063.209 3096.1499" layerid="7" stroke-width="0.4" c_etype="pad_outer"/></g><g c_partid="part_pad" c_etype="pinpart" c_origin="4068.681,3101.662" layerid="1" number="9" net="USB_OUT_9" plated ="Y"  id="gge471" locked="0" c_rotation="270" c_width="0" c_height="0" title="USB_OUT_9" c_shape="POLYGON" pasteexpansion="0" solderexpansion="0.2"><polygon points="4074.154 3100.0869 4074.154 3103.2369 4063.209 3103.2369 4063.209 3100.0869" layerid="7" stroke-width="0.4" c_etype="pad_outer"/></g><g c_partid="part_pad" c_etype="pinpart" c_origin="4068.681,3081.977" layerid="1" number="3" net="USB_OUT_3" plated ="Y"  id="gge486" locked="0" c_rotation="270" c_width="0" c_height="0" title="USB_OUT_3" c_shape="POLYGON" pasteexpansion="0" solderexpansion="0.2"><polygon points="4074.154 3080.4019 4074.154 3083.5519 4063.209 3083.5519 4063.209 3080.4019" layerid="7" stroke-width="0.4" c_etype="pad_outer"/></g><g c_partid="part_pad" c_etype="pinpart" c_origin="4068.681,3078.04" layerid="1" number="6" net="USB_OUT_6" plated ="Y"  id="gge501" locked="0" c_rotation="270" c_width="0" c_height="0" title="USB_OUT_6" c_shape="POLYGON" pasteexpansion="0" solderexpansion="0.2"><polygon points="4074.154 3076.4649 4074.154 3079.6149 4063.209 3079.6149 4063.209 3076.4649" layerid="7" stroke-width="0.4" c_etype="pad_outer"/></g><g c_partid="part_pad" c_etype="pinpart" c_origin="4068.681,3074.103" layerid="1" number="4" net="USB_OUT_4" plated ="Y"  id="gge516" locked="0" c_rotation="270" c_width="0" c_height="0" title="USB_OUT_4" c_shape="POLYGON" pasteexpansion="0" solderexpansion="0.2"><polygon points="4074.154 3072.5279 4074.154 3075.6779 4063.209 3075.6779 4063.209 3072.5279" layerid="7" stroke-width="0.4" c_etype="pad_outer"/></g><g c_partid="part_pad" c_etype="pinpart" c_origin="4068.681,3070.166" layerid="1" number="5" net="USB_OUT_5" plated ="Y"  id="gge531" locked="0" c_rotation="270" c_width="0" c_height="0" title="USB_OUT_5" c_shape="POLYGON" pasteexpansion="0" solderexpansion="0.2"><polygon points="4074.154 3068.5909 4074.154 3071.7409 4063.209 3071.7409 4063.209 3068.5909" layerid="7" stroke-width="0.4" c_etype="pad_outer"/></g><g c_partid="part_pad" c_etype="pinpart" c_origin="4057.5,3062.883" layerid="11" number="S1" net="USB_OUT_10" plated ="Y"  id="gge381" locked="0" c_rotation="270" c_width="5.543" c_height="11.087" title="USB_OUT_10" c_shape="OVAL" pasteexpansion="0" solderexpansion="0.2"><path d="M4060.272 3062.883L4054.728 3062.883" layerid="7" stroke-width="5.9430000000000005" c_etype="pad_outer"/></g><g c_partid="part_pad" c_etype="pinpart" c_origin="4057.5,3108.945" layerid="11" number="S2" net="USB_OUT_10" plated ="Y"  id="gge396" locked="0" c_rotation="270" c_width="5.543" c_height="11.087" title="USB_OUT_10" c_shape="OVAL" pasteexpansion="0" solderexpansion="0.2"><path d="M4060.272 3108.945L4054.728 3108.945" layerid="7" stroke-width="5.9430000000000005" c_etype="pad_outer"/></g><g c_partid="part_pad" c_etype="pinpart" c_origin="4156,3113.744" layerid="11" number="10" net="USB_OUT_10" plated ="Y"  id="gge579" locked="0" c_rotation="90" c_width="12.5984" c_height="12.5984" title="USB_OUT_10" c_shape="ELLIPSE" pasteexpansion="0" solderexpansion="0.2"><ellipse cx="4156" cy="3113.744" rx="6.4992" ry="6.4992" layerid="7" stroke-width="0" c_etype="pad_outer"/></g><g c_partid="part_pad" c_etype="pinpart" c_origin="4156,3058.084" layerid="11" number="11" net="USB_OUT_10" plated ="Y"  id="gge594" locked="0" c_rotation="90" c_width="12.5984" c_height="12.5984" title="USB_OUT_10" c_shape="ELLIPSE" pasteexpansion="0" solderexpansion="0.2"><ellipse cx="4156" cy="3058.084" rx="6.4992" ry="6.4992" layerid="7" stroke-width="0" c_etype="pad_outer"/></g><g c_partid="part_pad" c_etype="pinpart" c_origin="4148.126,3099.694" layerid="11" number="1" net="USB_OUT_1" plated ="Y"  id="gge609" locked="0" c_rotation="90" c_width="4.72" c_height="4.72" title="USB_OUT_1" c_shape="RECT" pasteexpansion="0" solderexpansion="0.2"><polygon points="4145.766 3102.056 4145.766 3097.332 4150.486 3097.332 4150.486 3102.056" layerid="7" stroke-width="0.4" c_etype="pad_outer"/></g><g c_partid="part_pad" c_etype="pinpart" c_origin="4148.13,3089.854" layerid="11" number="2" net="USB_OUT_2" plated ="Y"  id="gge624" locked="0" c_rotation="90" c_width="4.72" c_height="4.72" title="USB_OUT_2" c_shape="ELLIPSE" pasteexpansion="0" solderexpansion="0.2"><ellipse cx="4148.13" cy="3089.854" rx="2.56" ry="2.56" layerid="7" stroke-width="0" c_etype="pad_outer"/></g><g c_partid="part_pad" c_etype="pinpart" c_origin="4148.13,3081.974" layerid="11" number="3" net="USB_OUT_3" plated ="Y"  id="gge639" locked="0" c_rotation="90" c_width="4.72" c_height="4.72" title="USB_OUT_3" c_shape="ELLIPSE" pasteexpansion="0" solderexpansion="0.2"><ellipse cx="4148.13" cy="3081.974" rx="2.56" ry="2.56" layerid="7" stroke-width="0" c_etype="pad_outer"/></g><g c_partid="part_pad" c_etype="pinpart" c_origin="4148.13,3072.134" layerid="11" number="4" net="USB_OUT_4" plated ="Y"  id="gge654" locked="0" c_rotation="90" c_width="4.72" c_height="4.72" title="USB_OUT_4" c_shape="ELLIPSE" pasteexpansion="0" solderexpansion="0.2"><ellipse cx="4148.13" cy="3072.134" rx="2.56" ry="2.56" layerid="7" stroke-width="0" c_etype="pad_outer"/></g><g c_partid="part_pad" c_etype="pinpart" c_origin="4142.22,3101.664" layerid="11" number="9" net="USB_OUT_9" plated ="Y"  id="gge669" locked="0" c_rotation="90" c_width="4.72" c_height="4.72" title="USB_OUT_9" c_shape="ELLIPSE" pasteexpansion="0" solderexpansion="0.2"><ellipse cx="4142.22" cy="3101.664" rx="2.56" ry="2.56" layerid="7" stroke-width="0" c_etype="pad_outer"/></g><g c_partid="part_pad" c_etype="pinpart" c_origin="4142.22,3093.784" layerid="11" number="8" net="USB_OUT_8" plated ="Y"  id="gge684" locked="0" c_rotation="90" c_width="4.72" c_height="4.72" title="USB_OUT_8" c_shape="ELLIPSE" pasteexpansion="0" solderexpansion="0.2"><ellipse cx="4142.22" cy="3093.784" rx="2.56" ry="2.56" layerid="7" stroke-width="0" c_etype="pad_outer"/></g><g c_partid="part_pad" c_etype="pinpart" c_origin="4142.22,3085.914" layerid="11" number="7" net="USB_OUT_7" plated ="Y"  id="gge699" locked="0" c_rotation="90" c_width="4.72" c_height="4.72" title="USB_OUT_7" c_shape="ELLIPSE" pasteexpansion="0" solderexpansion="0.2"><ellipse cx="4142.22" cy="3085.914" rx="2.56" ry="2.56" layerid="7" stroke-width="0" c_etype="pad_outer"/></g><g c_partid="part_pad" c_etype="pinpart" c_origin="4142.22,3078.044" layerid="11" number="6" net="USB_OUT_6" plated ="Y"  id="gge714" locked="0" c_rotation="90" c_width="4.72" c_height="4.72" title="USB_OUT_6" c_shape="ELLIPSE" pasteexpansion="0" solderexpansion="0.2"><ellipse cx="4142.22" cy="3078.044" rx="2.56" ry="2.56" layerid="7" stroke-width="0" c_etype="pad_outer"/></g><g c_partid="part_pad" c_etype="pinpart" c_origin="4142.22,3070.164" layerid="11" number="5" net="USB_OUT_5" plated ="Y"  id="gge729" locked="0" c_rotation="90" c_width="4.72" c_height="4.72" title="USB_OUT_5" c_shape="ELLIPSE" pasteexpansion="0" solderexpansion="0.2"><ellipse cx="4142.22" cy="3070.164" rx="2.56" ry="2.56" layerid="7" stroke-width="0" c_etype="pad_outer"/></g><g c_partid="part_pad" c_etype="pinpart" c_origin="4094.043,3070" layerid="1" number="1" net="USB_OUT_4" plated ="Y"  id="gge27" locked="0" c_rotation="180" c_width="3.937" c_height="4.9213" title="USB_OUT_4" c_shape="RECT" pasteexpansion="0" solderexpansion="0.4"><polygon points="4096.0119 3072.4606 4092.0749 3072.4606 4092.0749 3067.5394 4096.0119 3067.5394" layerid="5" stroke-width="0" c_etype="pad_outer"/></g><g c_partid="part_pad" c_etype="pinpart" c_origin="4086.957,3070" layerid="1" number="2" net="C1_2" plated ="Y"  id="gge42" locked="0" c_rotation="180" c_width="3.937" c_height="4.9213" title="C1_2" c_shape="RECT" pasteexpansion="0" solderexpansion="0.4"><polygon points="4088.9253 3072.4606 4084.9883 3072.4606 4084.9883 3067.5394 4088.9253 3067.5394" layerid="5" stroke-width="0" c_etype="pad_outer"/></g><g c_partid="part_pad" c_etype="pinpart" c_origin="4119.666,3104.799" layerid="1" number="1" net="USB_OUT_1" plated ="Y"  id="gge123" locked="0" c_rotation="90" c_width="4.7244" c_height="7.4803" title="USB_OUT_1" c_shape="RECT" pasteexpansion="0" solderexpansion="0.4"><polygon points="4115.9263 3107.1614 4115.9263 3102.437 4123.4067 3102.437 4123.4067 3107.1614" layerid="5" stroke-width="0" c_etype="pad_outer"/></g><g c_partid="part_pad" c_etype="pinpart" c_origin="4119.666,3092.2" layerid="1" number="2" net="USB_OUT_4" plated ="Y"  id="gge138" locked="0" c_rotation="90" c_width="4.7244" c_height="7.4803" title="USB_OUT_4" c_shape="RECT" pasteexpansion="0" solderexpansion="0.4"><polygon points="4115.9263 3094.5624 4115.9263 3089.838 4123.4067 3089.838 4123.4067 3094.5624" layerid="5" stroke-width="0" c_etype="pad_outer"/></g><g c_partid="part_pad" c_etype="pinpart" c_origin="4119.666,3074.055" layerid="1" number="2" net="USB_OUT_1" plated ="Y"  id="gge225" locked="0" c_rotation="270" c_width="5.5512" c_height="5.315" title="USB_OUT_1" c_shape="RECT" pasteexpansion="-393.7008" solderexpansion="0.2000"><polygon points="" layerid="5" stroke-width="0" c_etype="pad_outer"/></g><g c_partid="part_pad" c_etype="pinpart" c_origin="4119.666,3065.945" layerid="1" number="1" net="USB_OUT_4" plated ="Y"  id="gge240" locked="0" c_rotation="270" c_width="5.5512" c_height="5.315" title="USB_OUT_4" c_shape="RECT" pasteexpansion="-393.7008" solderexpansion="0.2000"><polygon points="" layerid="5" stroke-width="0" c_etype="pad_outer"/></g><g c_partid="part_pad" c_etype="pinpart" c_origin="4086.8,3098.5" layerid="1" number="1" net="C1_2" plated ="Y"  id="gge291" locked="0" c_rotation="0" c_width="4.72" c_height="5.12" title="C1_2" c_shape="RECT" pasteexpansion="0" solderexpansion="0.2"><polygon points="4084.44 3095.94 4089.16 3095.94 4089.16 3101.06 4084.44 3101.06" layerid="5" stroke-width="0" c_etype="pad_outer"/></g><g c_partid="part_pad" c_etype="pinpart" c_origin="4094.2,3098.5" layerid="1" number="2" net="USB_OUT_1" plated ="Y"  id="gge306" locked="0" c_rotation="0" c_width="4.72" c_height="5.12" title="USB_OUT_1" c_shape="RECT" pasteexpansion="0" solderexpansion="0.2"><polygon points="4091.84 3095.94 4096.56 3095.94 4096.56 3101.06 4091.84 3101.06" layerid="5" stroke-width="0" c_etype="pad_outer"/></g><g c_partid="part_pad" c_etype="pinpart" c_origin="4068.681,3085.914" layerid="1" number="7" net="USB_OUT_7" plated ="Y"  id="gge411" locked="0" c_rotation="270" c_width="0" c_height="0" title="USB_OUT_7" c_shape="POLYGON" pasteexpansion="0" solderexpansion="0.2"><polygon points="4074.154 3084.3389 4074.154 3087.4889 4063.209 3087.4889 4063.209 3084.3389" layerid="5" stroke-width="0" c_etype="pad_outer"/></g><g c_partid="part_pad" c_etype="pinpart" c_origin="4068.681,3089.851" layerid="1" number="2" net="USB_OUT_2" plated ="Y"  id="gge426" locked="0" c_rotation="270" c_width="0" c_height="0" title="USB_OUT_2" c_shape="POLYGON" pasteexpansion="0" solderexpansion="0.2"><polygon points="4074.154 3088.2759 4074.154 3091.4259 4063.209 3091.4259 4063.209 3088.2759" layerid="5" stroke-width="0" c_etype="pad_outer"/></g><g c_partid="part_pad" c_etype="pinpart" c_origin="4068.681,3093.788" layerid="1" number="8" net="USB_OUT_8" plated ="Y"  id="gge441" locked="0" c_rotation="270" c_width="10.9451" c_height="3.1499" title="USB_OUT_8" c_shape="POLYGON" pasteexpansion="0" solderexpansion="0.2"><polygon points="4074.154 3092.2129 4074.154 3095.3629 4063.209 3095.3629 4063.209 3092.2129" layerid="5" stroke-width="0" c_etype="pad_outer"/></g><g c_partid="part_pad" c_etype="pinpart" c_origin="4068.681,3097.725" layerid="1" number="1" net="C1_2" plated ="Y"  id="gge456" locked="0" c_rotation="270" c_width="0" c_height="0" title="C1_2" c_shape="POLYGON" pasteexpansion="0" solderexpansion="0.2"><polygon points="4074.154 3096.1499 4074.154 3099.2999 4063.209 3099.2999 4063.209 3096.1499" layerid="5" stroke-width="0" c_etype="pad_outer"/></g><g c_partid="part_pad" c_etype="pinpart" c_origin="4068.681,3101.662" layerid="1" number="9" net="USB_OUT_9" plated ="Y"  id="gge471" locked="0" c_rotation="270" c_width="0" c_height="0" title="USB_OUT_9" c_shape="POLYGON" pasteexpansion="0" solderexpansion="0.2"><polygon points="4074.154 3100.0869 4074.154 3103.2369 4063.209 3103.2369 4063.209 3100.0869" layerid="5" stroke-width="0" c_etype="pad_outer"/></g><g c_partid="part_pad" c_etype="pinpart" c_origin="4068.681,3081.977" layerid="1" number="3" net="USB_OUT_3" plated ="Y"  id="gge486" locked="0" c_rotation="270" c_width="0" c_height="0" title="USB_OUT_3" c_shape="POLYGON" pasteexpansion="0" solderexpansion="0.2"><polygon points="4074.154 3080.4019 4074.154 3083.5519 4063.209 3083.5519 4063.209 3080.4019" layerid="5" stroke-width="0" c_etype="pad_outer"/></g><g c_partid="part_pad" c_etype="pinpart" c_origin="4068.681,3078.04" layerid="1" number="6" net="USB_OUT_6" plated ="Y"  id="gge501" locked="0" c_rotation="270" c_width="0" c_height="0" title="USB_OUT_6" c_shape="POLYGON" pasteexpansion="0" solderexpansion="0.2"><polygon points="4074.154 3076.4649 4074.154 3079.6149 4063.209 3079.6149 4063.209 3076.4649" layerid="5" stroke-width="0" c_etype="pad_outer"/></g><g c_partid="part_pad" c_etype="pinpart" c_origin="4068.681,3074.103" layerid="1" number="4" net="USB_OUT_4" plated ="Y"  id="gge516" locked="0" c_rotation="270" c_width="0" c_height="0" title="USB_OUT_4" c_shape="POLYGON" pasteexpansion="0" solderexpansion="0.2"><polygon points="4074.154 3072.5279 4074.154 3075.6779 4063.209 3075.6779 4063.209 3072.5279" layerid="5" stroke-width="0" c_etype="pad_outer"/></g><g c_partid="part_pad" c_etype="pinpart" c_origin="4068.681,3070.166" layerid="1" number="5" net="USB_OUT_5" plated ="Y"  id="gge531" locked="0" c_rotation="270" c_width="0" c_height="0" title="USB_OUT_5" c_shape="POLYGON" pasteexpansion="0" solderexpansion="0.2"><polygon points="4074.154 3068.5909 4074.154 3071.7409 4063.209 3071.7409 4063.209 3068.5909" layerid="5" stroke-width="0" c_etype="pad_outer"/></g><path d="M 4117.2257 3063.4054 L 4122.265 3063.4054 L 4122.4619 3063.6023 L 4122.4619 3068.1299 L 4122.265 3068.3267 L 4120.6507 3068.3465 L 4120.6507 3066.5748 L 4118.8791 3066.5748 L 4118.8791 3068.3071 L 4117.2257 3068.3267 L 4117.0288 3068.1299 L 4117.0288 3063.6023 Z " stroke-width="0"   net="" type="solid" layerid="5" id="gge180" locked="0" c_teardrop="" c_targetpad="" c_targetwire="" /><path d="M 4117.2257 3071.87 L 4118.8791 3071.8701 L 4118.8791 3073.622 L 4120.6507 3073.622 L 4120.6507 3071.8898 L 4122.265 3071.87 L 4122.4619 3072.0669 L 4122.4619 3076.5944 L 4122.265 3076.7913 L 4117.2257 3076.7913 L 4117.0288 3076.5944 L 4117.0288 3072.0669 Z " stroke-width="0"   net="" type="solid" layerid="5" id="gge183" locked="0" c_teardrop="" c_targetpad="" c_targetwire="" /><polyline points="4142.2201 3078.0439 4141.9471 3078.3169 4075.5301 3078.3169 4075.2531 3078.0399" stroke-width="1"  stroke-linecap="round" fill="none" layerid="1" net="USB_OUT_6" id="gge1419" locked="0" /><polyline points="4068.6811 3078.0399 4075.2531 3078.0399" stroke-width="1"  stroke-linecap="round" fill="none" layerid="1" net="USB_OUT_6" id="gge1416" locked="0" /><polyline points="4068.6811 3081.9769 4148.1271 3081.9769 4148.1301 3081.9739" stroke-width="1"  stroke-linecap="round" fill="none" layerid="1" net="USB_OUT_3" id="gge1413" locked="0" /><polyline points="4068.6811 3093.7879 4103.7161 3093.7879 4105.9771 3096.0489 4139.9551 3096.0489 4142.2201 3093.7839" stroke-width="1"  stroke-linecap="round" fill="none" layerid="1" net="USB_OUT_8" id="gge1410" locked="0" /><polyline points="4148.1301 3089.8539 4127.8961 3089.8539 4126.3451 3088.3029 4095.3121 3088.3029 4093.7641 3089.8509 4068.6811 3089.8509" stroke-width="1"  stroke-linecap="round" fill="none" layerid="1" net="USB_OUT_2" id="gge1407" locked="0" /><polyline points="4142.2201 3085.9139 4075.2531 3085.9139" stroke-width="1"  stroke-linecap="round" fill="none" layerid="1" net="USB_OUT_7" id="gge1404" locked="0" /><polyline points="4068.6811 3085.9139 4075.2531 3085.9139" stroke-width="1"  stroke-linecap="round" fill="none" layerid="1" net="USB_OUT_7" id="gge1401" locked="0" /><polyline points="4156.0001 3058.0839 4114.5721 3058.0839 4110.5561 3062.0999 4058.2831 3062.0999 4057.5001 3062.8829" stroke-width="1"  stroke-linecap="round" fill="none" layerid="1" net="USB_OUT_10" id="gge1392" locked="0" /><polyline points="4068.6811 3070.1659 4075.2531 3070.1659" stroke-width="1"  stroke-linecap="round" fill="none" layerid="1" net="USB_OUT_5" id="gge1386" locked="0" /><polyline points="4101.0231 3064.4889 4080.9301 3064.4889 4075.2531 3070.1659" stroke-width="1"  stroke-linecap="round" fill="none" layerid="1" net="USB_OUT_5" id="gge1380" locked="0" /><polyline points="4139.3791 3110.8719 4084.4631 3110.8719 4075.2531 3101.6619" stroke-width="1"  stroke-linecap="round" fill="none" layerid="1" net="USB_OUT_9" id="gge1371" locked="0" /><polyline points="4068.6811 3101.6619 4075.2531 3101.6619" stroke-width="1"  stroke-linecap="round" fill="none" layerid="1" net="USB_OUT_9" id="gge1368" locked="0" /><polyline points="4148.1261 3104.0249 4146.1401 3106.0109 4126.5861 3106.0109 4125.3751 3104.7999" stroke-width="1.9685"  stroke-linecap="round" fill="none" layerid="1" net="USB_OUT_1" id="gge1362" locked="0" /><polyline points="4148.1261 3099.6939 4148.1261 3104.0249" stroke-width="1.9685"  stroke-linecap="round" fill="none" layerid="1" net="USB_OUT_1" id="gge1359" locked="0" /><polyline points="4119.6661 3104.7999 4125.3751 3104.7999" stroke-width="1.9685"  stroke-linecap="round" fill="none" layerid="1" net="USB_OUT_1" id="gge1356" locked="0" /><polyline points="4098.5291 3098.4999 4104.8291 3104.7999 4119.6661 3104.7999" stroke-width="1.9685"  stroke-linecap="round" fill="none" layerid="1" net="USB_OUT_1" id="gge1353" locked="0" /><polyline points="4094.2001 3098.4999 4098.5291 3098.4999" stroke-width="1.9685"  stroke-linecap="round" fill="none" layerid="1" net="USB_OUT_1" id="gge1350" locked="0" /><polyline points="4128.4591 3074.2399 4124.4781 3074.2399 4124.2931 3074.0549" stroke-width="1.9685"  stroke-linecap="round" fill="none" layerid="1" net="USB_OUT_1" id="gge1344" locked="0" /><polyline points="4119.6661 3074.0549 4124.2931 3074.0549" stroke-width="1.9685"  stroke-linecap="round" fill="none" layerid="1" net="USB_OUT_1" id="gge1341" locked="0" /><polyline points="4086.8001 3098.4999 4082.4711 3098.4999" stroke-width="1.9685"  stroke-linecap="round" fill="none" layerid="1" net="C1_2" id="gge1332" locked="0" /><polyline points="4068.6811 3097.7249 4080.8541 3097.7249" stroke-width="1.9685"  stroke-linecap="round" fill="none" layerid="1" net="C1_2" id="gge1329" locked="0" /><polyline points="4080.8541 3097.7249 4081.6961 3097.7249 4082.4711 3098.4999" stroke-width="1.9685"  stroke-linecap="round" fill="none" layerid="1" net="C1_2" id="gge1326" locked="0" /><polyline points="4086.9571 3069.9999 4083.0191 3069.9999" stroke-width="1.9685"  stroke-linecap="round" fill="none" layerid="1" net="C1_2" id="gge1323" locked="0" /><polyline points="4083.0191 3069.9999 4082.7491 3069.9999" stroke-width="1.9685"  stroke-linecap="round" fill="none" layerid="1" net="C1_2" id="gge1320" locked="0" /><polyline points="4148.1301 3072.1339 4148.1301 3069.8039 4144.1601 3065.8339 4124.4041 3065.8339 4124.2931 3065.9449" stroke-width="1.9685"  stroke-linecap="round" fill="none" layerid="1" net="USB_OUT_4" id="gge1311" locked="0" /><polyline points="4076.1231 3074.1029 4076.4501 3074.4299 4094.0431 3074.4299" stroke-width="1.9685"  stroke-linecap="round" fill="none" layerid="1" net="USB_OUT_4" id="gge1308" locked="0" /><polyline points="4068.6811 3074.1029 4076.1231 3074.1029" stroke-width="1.9685"  stroke-linecap="round" fill="none" layerid="1" net="USB_OUT_4" id="gge1305" locked="0" /><polyline points="4094.0431 3069.9999 4094.0431 3074.4299" stroke-width="1.9685"  stroke-linecap="round" fill="none" layerid="1" net="USB_OUT_4" id="gge1302" locked="0" /><polyline points="4121.9801 3065.9449 4124.2931 3065.9449" stroke-width="1.9685"  stroke-linecap="round" fill="none" layerid="1" net="USB_OUT_4" id="gge1299" locked="0" /><polyline points="4121.9801 3065.9449 4119.6661 3065.9449" stroke-width="1.9685"  stroke-linecap="round" fill="none" layerid="1" net="USB_OUT_4" id="gge1296" locked="0" /><polyline points="4094.0431 3069.9999 4097.9811 3069.9999" stroke-width="1.9685"  stroke-linecap="round" fill="none" layerid="1" net="USB_OUT_4" id="gge1293" locked="0" /><polyline points="4097.9811 3069.9999 4099.9961 3069.9999 4104.0511 3065.9449 4119.6661 3065.9449" stroke-width="1.9685"  stroke-linecap="round" fill="none" layerid="1" net="USB_OUT_4" id="gge1290" locked="0" /><polyline points="4106.4911 3092.2009 4119.6661 3092.2009" stroke-width="1.9685"  stroke-linecap="round" fill="none" layerid="1" net="USB_OUT_4" id="gge1284" locked="0" /><g c_partid="part_pad" c_etype="pinpart" c_origin="4094.043,3070" layerid="1" number="1" net="USB_OUT_4" plated ="Y"  id="gge27" locked="0" c_rotation="180" c_width="3.937" c_height="4.9213" title="USB_OUT_4" c_shape="RECT" pasteexpansion="0" solderexpansion="0.4"><polygon  c_etype="pad_shell" points="4096.0119 3072.4606 4092.0749 3072.4606 4092.0749 3067.5394 4096.0119 3067.5394" layerid="1" stroke-width="0" /><circle c_etype="pad_hole" cx="4094.0431" cy="3070" r="0" layerid="1" stroke-width="0"/></g><g c_partid="part_pad" c_etype="pinpart" c_origin="4086.957,3070" layerid="1" number="2" net="C1_2" plated ="Y"  id="gge42" locked="0" c_rotation="180" c_width="3.937" c_height="4.9213" title="C1_2" c_shape="RECT" pasteexpansion="0" solderexpansion="0.4"><polygon  c_etype="pad_shell" points="4088.9253 3072.4606 4084.9883 3072.4606 4084.9883 3067.5394 4088.9253 3067.5394" layerid="1" stroke-width="0" /><circle c_etype="pad_hole" cx="4086.9571" cy="3070" r="0" layerid="1" stroke-width="0"/></g><g c_partid="part_pad" c_etype="pinpart" c_origin="4119.666,3104.799" layerid="1" number="1" net="USB_OUT_1" plated ="Y"  id="gge123" locked="0" c_rotation="90" c_width="4.7244" c_height="7.4803" title="USB_OUT_1" c_shape="RECT" pasteexpansion="0" solderexpansion="0.4"><polygon  c_etype="pad_shell" points="4115.9263 3107.1614 4115.9263 3102.437 4123.4067 3102.437 4123.4067 3107.1614" layerid="1" stroke-width="0" /><circle c_etype="pad_hole" cx="4119.6665" cy="3104.7992" r="0" layerid="1" stroke-width="0"/></g><g c_partid="part_pad" c_etype="pinpart" c_origin="4119.666,3092.2" layerid="1" number="2" net="USB_OUT_4" plated ="Y"  id="gge138" locked="0" c_rotation="90" c_width="4.7244" c_height="7.4803" title="USB_OUT_4" c_shape="RECT" pasteexpansion="0" solderexpansion="0.4"><polygon  c_etype="pad_shell" points="4115.9263 3094.5624 4115.9263 3089.838 4123.4067 3089.838 4123.4067 3094.5624" layerid="1" stroke-width="0" /><circle c_etype="pad_hole" cx="4119.6665" cy="3092.2006" r="0" layerid="1" stroke-width="0"/></g><g c_partid="part_pad" c_etype="pinpart" c_origin="4119.666,3074.055" layerid="1" number="2" net="USB_OUT_1" plated ="Y"  id="gge225" locked="0" c_rotation="270" c_width="5.5512" c_height="5.315" title="USB_OUT_1" c_shape="RECT" pasteexpansion="-393.7008" solderexpansion="0.2000"><polygon  c_etype="pad_shell" points="4117.009 3071.2795 4122.324 3071.2795 4122.324 3076.8307 4117.009 3076.8307" layerid="1" stroke-width="0" /><circle c_etype="pad_hole" cx="4119.6665" cy="3074.0551" r="0" layerid="1" stroke-width="0"/></g><g c_partid="part_pad" c_etype="pinpart" c_origin="4119.666,3065.945" layerid="1" number="1" net="USB_OUT_4" plated ="Y"  id="gge240" locked="0" c_rotation="270" c_width="5.5512" c_height="5.315" title="USB_OUT_4" c_shape="RECT" pasteexpansion="-393.7008" solderexpansion="0.2000"><polygon  c_etype="pad_shell" points="4117.009 3068.7205 4122.324 3068.7205 4122.324 3063.1693 4117.009 3063.1693" layerid="1" stroke-width="0" /><circle c_etype="pad_hole" cx="4119.6665" cy="3065.9449" r="0" layerid="1" stroke-width="0"/></g><g c_partid="part_pad" c_etype="pinpart" c_origin="4086.8,3098.5" layerid="1" number="1" net="C1_2" plated ="Y"  id="gge291" locked="0" c_rotation="0" c_width="4.72" c_height="5.12" title="C1_2" c_shape="RECT" pasteexpansion="0" solderexpansion="0.2"><polygon  c_etype="pad_shell" points="4084.44 3095.94 4089.16 3095.94 4089.16 3101.06 4084.44 3101.06" layerid="1" stroke-width="0" /><circle c_etype="pad_hole" cx="4086.8" cy="3098.5" r="0" layerid="1" stroke-width="0"/></g><g c_partid="part_pad" c_etype="pinpart" c_origin="4094.2,3098.5" layerid="1" number="2" net="USB_OUT_1" plated ="Y"  id="gge306" locked="0" c_rotation="0" c_width="4.72" c_height="5.12" title="USB_OUT_1" c_shape="RECT" pasteexpansion="0" solderexpansion="0.2"><polygon  c_etype="pad_shell" points="4091.84 3095.94 4096.56 3095.94 4096.56 3101.06 4091.84 3101.06" layerid="1" stroke-width="0" /><circle c_etype="pad_hole" cx="4094.2" cy="3098.5" r="0" layerid="1" stroke-width="0"/></g><g c_partid="part_pad" c_etype="pinpart" c_origin="4068.681,3085.914" layerid="1" number="7" net="USB_OUT_7" plated ="Y"  id="gge411" locked="0" c_rotation="270" c_width="0" c_height="0" title="USB_OUT_7" c_shape="POLYGON" pasteexpansion="0" solderexpansion="0.2"><polygon  c_etype="pad_shell" points="4074.154 3084.3389 4074.154 3087.4889 4063.209 3087.4889 4063.209 3084.3389" layerid="1" stroke-width="0" /><circle c_etype="pad_hole" cx="4068.681" cy="3085.9139" r="0" layerid="1" stroke-width="0"/></g><g c_partid="part_pad" c_etype="pinpart" c_origin="4068.681,3089.851" layerid="1" number="2" net="USB_OUT_2" plated ="Y"  id="gge426" locked="0" c_rotation="270" c_width="0" c_height="0" title="USB_OUT_2" c_shape="POLYGON" pasteexpansion="0" solderexpansion="0.2"><polygon  c_etype="pad_shell" points="4074.154 3088.2759 4074.154 3091.4259 4063.209 3091.4259 4063.209 3088.2759" layerid="1" stroke-width="0" /><circle c_etype="pad_hole" cx="4068.681" cy="3089.8509" r="0" layerid="1" stroke-width="0"/></g><g c_partid="part_pad" c_etype="pinpart" c_origin="4068.681,3093.788" layerid="1" number="8" net="USB_OUT_8" plated ="Y"  id="gge441" locked="0" c_rotation="270" c_width="10.9451" c_height="3.1499" title="USB_OUT_8" c_shape="POLYGON" pasteexpansion="0" solderexpansion="0.2"><polygon  c_etype="pad_shell" points="4074.154 3092.2129 4074.154 3095.3629 4063.209 3095.3629 4063.209 3092.2129" layerid="1" stroke-width="0" /><circle c_etype="pad_hole" cx="4068.681" cy="3093.7879" r="0" layerid="1" stroke-width="0"/></g><g c_partid="part_pad" c_etype="pinpart" c_origin="4068.681,3097.725" layerid="1" number="1" net="C1_2" plated ="Y"  id="gge456" locked="0" c_rotation="270" c_width="0" c_height="0" title="C1_2" c_shape="POLYGON" pasteexpansion="0" solderexpansion="0.2"><polygon  c_etype="pad_shell" points="4074.154 3096.1499 4074.154 3099.2999 4063.209 3099.2999 4063.209 3096.1499" layerid="1" stroke-width="0" /><circle c_etype="pad_hole" cx="4068.681" cy="3097.7249" r="0" layerid="1" stroke-width="0"/></g><g c_partid="part_pad" c_etype="pinpart" c_origin="4068.681,3101.662" layerid="1" number="9" net="USB_OUT_9" plated ="Y"  id="gge471" locked="0" c_rotation="270" c_width="0" c_height="0" title="USB_OUT_9" c_shape="POLYGON" pasteexpansion="0" solderexpansion="0.2"><polygon  c_etype="pad_shell" points="4074.154 3100.0869 4074.154 3103.2369 4063.209 3103.2369 4063.209 3100.0869" layerid="1" stroke-width="0" /><circle c_etype="pad_hole" cx="4068.681" cy="3101.6619" r="0" layerid="1" stroke-width="0"/></g><g c_partid="part_pad" c_etype="pinpart" c_origin="4068.681,3081.977" layerid="1" number="3" net="USB_OUT_3" plated ="Y"  id="gge486" locked="0" c_rotation="270" c_width="0" c_height="0" title="USB_OUT_3" c_shape="POLYGON" pasteexpansion="0" solderexpansion="0.2"><polygon  c_etype="pad_shell" points="4074.154 3080.4019 4074.154 3083.5519 4063.209 3083.5519 4063.209 3080.4019" layerid="1" stroke-width="0" /><circle c_etype="pad_hole" cx="4068.681" cy="3081.9769" r="0" layerid="1" stroke-width="0"/></g><g c_partid="part_pad" c_etype="pinpart" c_origin="4068.681,3078.04" layerid="1" number="6" net="USB_OUT_6" plated ="Y"  id="gge501" locked="0" c_rotation="270" c_width="0" c_height="0" title="USB_OUT_6" c_shape="POLYGON" pasteexpansion="0" solderexpansion="0.2"><polygon  c_etype="pad_shell" points="4074.154 3076.4649 4074.154 3079.6149 4063.209 3079.6149 4063.209 3076.4649" layerid="1" stroke-width="0" /><circle c_etype="pad_hole" cx="4068.681" cy="3078.0399" r="0" layerid="1" stroke-width="0"/></g><g c_partid="part_pad" c_etype="pinpart" c_origin="4068.681,3074.103" layerid="1" number="4" net="USB_OUT_4" plated ="Y"  id="gge516" locked="0" c_rotation="270" c_width="0" c_height="0" title="USB_OUT_4" c_shape="POLYGON" pasteexpansion="0" solderexpansion="0.2"><polygon  c_etype="pad_shell" points="4074.154 3072.5279 4074.154 3075.6779 4063.209 3075.6779 4063.209 3072.5279" layerid="1" stroke-width="0" /><circle c_etype="pad_hole" cx="4068.681" cy="3074.1029" r="0" layerid="1" stroke-width="0"/></g><g c_partid="part_pad" c_etype="pinpart" c_origin="4068.681,3070.166" layerid="1" number="5" net="USB_OUT_5" plated ="Y"  id="gge531" locked="0" c_rotation="270" c_width="0" c_height="0" title="USB_OUT_5" c_shape="POLYGON" pasteexpansion="0" solderexpansion="0.2"><polygon  c_etype="pad_shell" points="4074.154 3068.5909 4074.154 3071.7409 4063.209 3071.7409 4063.209 3068.5909" layerid="1" stroke-width="0" /><circle c_etype="pad_hole" cx="4068.681" cy="3070.1659" r="0" layerid="1" stroke-width="0"/></g><g c_partid="part_pad" c_etype="pinpart" c_origin="4057.5,3062.883" layerid="11" number="S1" net="USB_OUT_10" plated ="Y"  id="gge381" locked="0" c_rotation="270" c_width="5.543" c_height="11.087" title="USB_OUT_10" c_shape="OVAL" pasteexpansion="0" solderexpansion="0.2"><polyline  c_etype="pad_shell" points="4060.272 3062.883 4054.728 3062.883" layerid="11" stroke-width="5.543" /><polyline c_etype="pad_hole" points="4053.5635 3062.8829 4061.4365 3062.8829" layerid="11" stroke-width="3.544"></polyline></g><g c_partid="part_pad" c_etype="pinpart" c_origin="4057.5,3108.945" layerid="11" number="S2" net="USB_OUT_10" plated ="Y"  id="gge396" locked="0" c_rotation="270" c_width="5.543" c_height="11.087" title="USB_OUT_10" c_shape="OVAL" pasteexpansion="0" solderexpansion="0.2"><polyline  c_etype="pad_shell" points="4060.272 3108.945 4054.728 3108.945" layerid="11" stroke-width="5.543" /><polyline c_etype="pad_hole" points="4053.5635 3108.9449 4061.4365 3108.9449" layerid="11" stroke-width="3.544"></polyline></g><g c_partid="part_pad" c_etype="pinpart" c_origin="4156,3113.744" layerid="11" number="10" net="USB_OUT_10" plated ="Y"  id="gge579" locked="0" c_rotation="90" c_width="12.5984" c_height="12.5984" title="USB_OUT_10" c_shape="ELLIPSE" pasteexpansion="0" solderexpansion="0.2"><ellipse c_etype="pad_shell" cx="4156" cy="3113.744" rx="6.2992" ry="6.2992" layerid="11" stroke-width="0"/><circle c_etype="pad_hole" cx="4156" cy="3113.744" r="4.5276" layerid="11" stroke-width="0"/></g><g c_partid="part_pad" c_etype="pinpart" c_origin="4156,3058.084" layerid="11" number="11" net="USB_OUT_10" plated ="Y"  id="gge594" locked="0" c_rotation="90" c_width="12.5984" c_height="12.5984" title="USB_OUT_10" c_shape="ELLIPSE" pasteexpansion="0" solderexpansion="0.2"><ellipse c_etype="pad_shell" cx="4156" cy="3058.084" rx="6.2992" ry="6.2992" layerid="11" stroke-width="0"/><circle c_etype="pad_hole" cx="4156" cy="3058.084" r="4.5276" layerid="11" stroke-width="0"/></g><g c_partid="part_pad" c_etype="pinpart" c_origin="4148.126,3099.694" layerid="11" number="1" net="USB_OUT_1" plated ="Y"  id="gge609" locked="0" c_rotation="90" c_width="4.72" c_height="4.72" title="USB_OUT_1" c_shape="RECT" pasteexpansion="0" solderexpansion="0.2"><polygon  c_etype="pad_shell" points="4145.766 3102.056 4145.766 3097.332 4150.486 3097.332 4150.486 3102.056" layerid="11" stroke-width="0" /><circle c_etype="pad_hole" cx="4148.126" cy="3099.694" r="1.38" layerid="11" stroke-width="0"/></g><g c_partid="part_pad" c_etype="pinpart" c_origin="4148.13,3089.854" layerid="11" number="2" net="USB_OUT_2" plated ="Y"  id="gge624" locked="0" c_rotation="90" c_width="4.72" c_height="4.72" title="USB_OUT_2" c_shape="ELLIPSE" pasteexpansion="0" solderexpansion="0.2"><ellipse c_etype="pad_shell" cx="4148.13" cy="3089.854" rx="2.36" ry="2.36" layerid="11" stroke-width="0"/><circle c_etype="pad_hole" cx="4148.13" cy="3089.854" r="1.38" layerid="11" stroke-width="0"/></g><g c_partid="part_pad" c_etype="pinpart" c_origin="4148.13,3081.974" layerid="11" number="3" net="USB_OUT_3" plated ="Y"  id="gge639" locked="0" c_rotation="90" c_width="4.72" c_height="4.72" title="USB_OUT_3" c_shape="ELLIPSE" pasteexpansion="0" solderexpansion="0.2"><ellipse c_etype="pad_shell" cx="4148.13" cy="3081.974" rx="2.36" ry="2.36" layerid="11" stroke-width="0"/><circle c_etype="pad_hole" cx="4148.13" cy="3081.974" r="1.38" layerid="11" stroke-width="0"/></g><g c_partid="part_pad" c_etype="pinpart" c_origin="4148.13,3072.134" layerid="11" number="4" net="USB_OUT_4" plated ="Y"  id="gge654" locked="0" c_rotation="90" c_width="4.72" c_height="4.72" title="USB_OUT_4" c_shape="ELLIPSE" pasteexpansion="0" solderexpansion="0.2"><ellipse c_etype="pad_shell" cx="4148.13" cy="3072.134" rx="2.36" ry="2.36" layerid="11" stroke-width="0"/><circle c_etype="pad_hole" cx="4148.13" cy="3072.134" r="1.38" layerid="11" stroke-width="0"/></g><g c_partid="part_pad" c_etype="pinpart" c_origin="4142.22,3101.664" layerid="11" number="9" net="USB_OUT_9" plated ="Y"  id="gge669" locked="0" c_rotation="90" c_width="4.72" c_height="4.72" title="USB_OUT_9" c_shape="ELLIPSE" pasteexpansion="0" solderexpansion="0.2"><ellipse c_etype="pad_shell" cx="4142.22" cy="3101.664" rx="2.36" ry="2.36" layerid="11" stroke-width="0"/><circle c_etype="pad_hole" cx="4142.22" cy="3101.664" r="1.38" layerid="11" stroke-width="0"/></g><g c_partid="part_pad" c_etype="pinpart" c_origin="4142.22,3093.784" layerid="11" number="8" net="USB_OUT_8" plated ="Y"  id="gge684" locked="0" c_rotation="90" c_width="4.72" c_height="4.72" title="USB_OUT_8" c_shape="ELLIPSE" pasteexpansion="0" solderexpansion="0.2"><ellipse c_etype="pad_shell" cx="4142.22" cy="3093.784" rx="2.36" ry="2.36" layerid="11" stroke-width="0"/><circle c_etype="pad_hole" cx="4142.22" cy="3093.784" r="1.38" layerid="11" stroke-width="0"/></g><g c_partid="part_pad" c_etype="pinpart" c_origin="4142.22,3085.914" layerid="11" number="7" net="USB_OUT_7" plated ="Y"  id="gge699" locked="0" c_rotation="90" c_width="4.72" c_height="4.72" title="USB_OUT_7" c_shape="ELLIPSE" pasteexpansion="0" solderexpansion="0.2"><ellipse c_etype="pad_shell" cx="4142.22" cy="3085.914" rx="2.36" ry="2.36" layerid="11" stroke-width="0"/><circle c_etype="pad_hole" cx="4142.22" cy="3085.914" r="1.38" layerid="11" stroke-width="0"/></g><g c_partid="part_pad" c_etype="pinpart" c_origin="4142.22,3078.044" layerid="11" number="6" net="USB_OUT_6" plated ="Y"  id="gge714" locked="0" c_rotation="90" c_width="4.72" c_height="4.72" title="USB_OUT_6" c_shape="ELLIPSE" pasteexpansion="0" solderexpansion="0.2"><ellipse c_etype="pad_shell" cx="4142.22" cy="3078.044" rx="2.36" ry="2.36" layerid="11" stroke-width="0"/><circle c_etype="pad_hole" cx="4142.22" cy="3078.044" r="1.38" layerid="11" stroke-width="0"/></g><g c_partid="part_pad" c_etype="pinpart" c_origin="4142.22,3070.164" layerid="11" number="5" net="USB_OUT_5" plated ="Y"  id="gge729" locked="0" c_rotation="90" c_width="4.72" c_height="4.72" title="USB_OUT_5" c_shape="ELLIPSE" pasteexpansion="0" solderexpansion="0.2"><ellipse c_etype="pad_shell" cx="4142.22" cy="3070.164" rx="2.36" ry="2.36" layerid="11" stroke-width="0"/><circle c_etype="pad_hole" cx="4142.22" cy="3070.164" r="1.38" layerid="11" stroke-width="0"/></g><g c_partid="part_via" c_etype="pinpart" c_shapetype="group" net="USB_OUT_4" c_origin="4106.491,3092.201" layerid="11" id="gge1314" locked="0" solderexpansion=""><circle cx="4106.491" cy="3092.201" r="1.2008" stroke-width="0" c_etype="pad_shell"/><circle cx="4106.491" cy="3092.201" r="0.6004"  stroke-width="0" c_etype="pad_hole"/></g><g c_partid="part_via" c_etype="pinpart" c_shapetype="group" net="C1_2" c_origin="4082.749,3070" layerid="11" id="gge1335" locked="0" solderexpansion=""><circle cx="4082.749" cy="3070" r="1.2008" stroke-width="0" c_etype="pad_shell"/><circle cx="4082.749" cy="3070" r="0.6004"  stroke-width="0" c_etype="pad_hole"/></g><g c_partid="part_via" c_etype="pinpart" c_shapetype="group" net="C1_2" c_origin="4080.854,3097.725" layerid="11" id="gge1338" locked="0" solderexpansion=""><circle cx="4080.854" cy="3097.725" r="1.2008" stroke-width="0" c_etype="pad_shell"/><circle cx="4080.854" cy="3097.725" r="0.6004"  stroke-width="0" c_etype="pad_hole"/></g><g c_partid="part_via" c_etype="pinpart" c_shapetype="group" net="USB_OUT_1" c_origin="4128.459,3074.24" layerid="11" id="gge1365" locked="0" solderexpansion=""><circle cx="4128.459" cy="3074.24" r="1.2008" stroke-width="0" c_etype="pad_shell"/><circle cx="4128.459" cy="3074.24" r="0.6004"  stroke-width="0" c_etype="pad_hole"/></g><g c_partid="part_via" c_etype="pinpart" c_shapetype="group" net="USB_OUT_9" c_origin="4139.379,3110.872" layerid="11" id="gge1377" locked="0" solderexpansion=""><circle cx="4139.379" cy="3110.872" r="1.2008" stroke-width="0" c_etype="pad_shell"/><circle cx="4139.379" cy="3110.872" r="0.6004"  stroke-width="0" c_etype="pad_hole"/></g><g c_partid="part_via" c_etype="pinpart" c_shapetype="group" net="USB_OUT_5" c_origin="4101.023,3064.489" layerid="11" id="gge1389" locked="0" solderexpansion=""><circle cx="4101.023" cy="3064.489" r="1.2008" stroke-width="0" c_etype="pad_shell"/><circle cx="4101.023" cy="3064.489" r="0.6004"  stroke-width="0" c_etype="pad_hole"/></g><g c_partid="part_hole" c_etype="pinpart" c_shapetype="group" c_origin="4106.614,3116.347" layerid="11" id="gge834" locked="0" ><circle cx="4106.614" cy="3116.347" r="4"  stroke-width="0" /></g><g c_partid="part_hole" c_etype="pinpart" c_shapetype="group" c_origin="4106.614,3055.481" layerid="11" id="gge864" locked="0" ><circle cx="4106.614" cy="3055.481" r="4"  stroke-width="0" /></g><g c_partid="part_hole" c_etype="pinpart" c_shapetype="group" c_origin="4057.5,3094.772" layerid="11" id="gge339" locked="0" ><circle cx="4057.5" cy="3094.772" r="2.362"  stroke-width="0" /></g><g c_partid="part_hole" c_etype="pinpart" c_shapetype="group" c_origin="4057.5,3077.056" layerid="11" id="gge351" locked="0" ><circle cx="4057.5" cy="3077.056" r="2.362"  stroke-width="0" /></g><polyline points="4092.0749 3066.4567 4097.193 3066.4567 4097.193 3073.5433 4092.0749 3073.5433" stroke-width="0.591"  stroke-linecap="round" fill="none" layerid="3" net="S$36" id="gge21" locked="0" /><polyline points="4088.9253 3066.4567 4083.8072 3066.4567 4083.8072 3073.5433 4088.9253 3073.5433" stroke-width="0.591"  stroke-linecap="round" fill="none" layerid="3" net="S$34" id="gge24" locked="0" /><polyline points="4115.7295 3088.6574 4123.6035 3088.6574" stroke-width="1"  stroke-linecap="round" fill="none" layerid="3" net="" id="gge75" locked="0" /><polyline points="4114.9421 3102.437 4114.9421 3107.1614" stroke-width="1"  stroke-linecap="round" fill="none" layerid="3" net="" id="gge78" locked="0" /><polyline points="4124.3909 3102.437 4124.3909 3107.1614" stroke-width="1"  stroke-linecap="round" fill="none" layerid="3" net="" id="gge81" locked="0" /><polyline points="4114.9421 3094.5629 4114.9421 3089.8386" stroke-width="1"  stroke-linecap="round" fill="none" layerid="3" net="" id="gge84" locked="0" /><polyline points="4124.3909 3094.5629 4124.3909 3089.8386" stroke-width="1"  stroke-linecap="round" fill="none" layerid="3" net="" id="gge87" locked="0" /><polyline points="4115.7295 3108.3425 4123.6035 3108.3425" stroke-width="1"  stroke-linecap="round" fill="none" layerid="3" net="" id="gge90" locked="0" /><polyline points="4114.9421 3107.5551 4114.9421 3107.1614" stroke-width="1"  stroke-linecap="round" fill="none" layerid="3" net="" id="gge93" locked="0" /><polyline points="4124.3909 3107.5551 4124.3909 3107.1614" stroke-width="1"  stroke-linecap="round" fill="none" layerid="3" net="" id="gge96" locked="0" /><polyline points="4114.9421 3089.4448 4114.9421 3089.8386" stroke-width="1"  stroke-linecap="round" fill="none" layerid="3" net="" id="gge99" locked="0" /><polyline points="4124.3909 3089.4448 4124.3909 3089.8386" stroke-width="1"  stroke-linecap="round" fill="none" layerid="3" net="" id="gge102" locked="0" /><polyline points="4123.224 3077.1307 4123.224 3071.5795" stroke-width="0.6"  stroke-linecap="round" fill="none" layerid="3" net="" id="gge186" locked="0" /><polyline points="4116.109 3071.5795 4116.109 3077.1307" stroke-width="0.6"  stroke-linecap="round" fill="none" layerid="3" net="" id="gge189" locked="0" /><polyline points="4116.709 3077.7307 4122.624 3077.7307" stroke-width="0.6"  stroke-linecap="round" fill="none" layerid="3" net="" id="gge192" locked="0" /><polyline points="4123.224 3062.8693 4123.224 3068.4205" stroke-width="0.6"  stroke-linecap="round" fill="none" layerid="3" net="" id="gge195" locked="0" /><polyline points="4116.109 3068.4205 4116.109 3062.8693" stroke-width="0.6"  stroke-linecap="round" fill="none" layerid="3" net="" id="gge198" locked="0" /><polyline points="4116.709 3062.2693 4122.624 3062.2693" stroke-width="0.6"  stroke-linecap="round" fill="none" layerid="3" net="" id="gge201" locked="0" /><polyline points="4083.3 3095.1 4097.7 3095.1" stroke-width="1"  stroke-linecap="round" fill="none" layerid="3" net="" id="gge273" locked="0" /><polyline points="4097.7 3095.1 4097.7 3101.9" stroke-width="1"  stroke-linecap="round" fill="none" layerid="3" net="" id="gge276" locked="0" /><polyline points="4097.7 3101.9 4083.3 3101.9" stroke-width="1"  stroke-linecap="round" fill="none" layerid="3" net="" id="gge279" locked="0" /><polyline points="4083.3 3101.9 4083.3 3095.1" stroke-width="1"  stroke-linecap="round" fill="none" layerid="3" net="" id="gge282" locked="0" /><polyline points="4050.02 3062.8829 3987.618 3062.8829 3987.618 3108.9449 4050.02 3108.9449" stroke-width="0.5"  stroke-linecap="round" fill="none" layerid="3" net="" id="gge369" locked="0" /><polyline points="4061.437 3066.2289 4061.437 3105.5989" stroke-width="0.5"  stroke-linecap="round" fill="none" layerid="3" net="" id="gge375" locked="0" /><polyline points="4137 3113.914 4203 3113.914 4203 3057.914 4137 3057.914 4137 3113.914" stroke-width="1"  stroke-linecap="round" fill="none" layerid="3" net="" id="gge570" locked="0" /><polyline points="4171 3075.914 4191 3072.914 4191 3068.914 4171 3065.914" stroke-width="1"  stroke-linecap="round" fill="none" layerid="3" net="" id="gge573" locked="0" /><polyline points="4171 3105.914 4191 3102.914 4191 3098.914 4171 3095.914" stroke-width="1"  stroke-linecap="round" fill="none" layerid="3" net="" id="gge576" locked="0" /><g c_partid="part_pcbtext" c_etype="pinpart" c_origin="4051,3053.5" c_rotation="0" c_mirror="0" id="gge1020" locked="0" layerid="3" c_shapetype="group" ><path c_fontsize="3.937" c_fontfamily="" c_text="ATL USB FILTER\n         V2.0" d="M 4052.43 3049.53 L 4051 3053.29 M 4052.43 3049.53 L 4053.86 3053.29 M 4051.54 3052.03 L 4053.33 3052.03 M 4056.3 3049.53 L 4056.3 3053.29 M 4055.04 3049.53 L 4057.55 3049.53 M 4058.73 3049.53 L 4058.73 3053.29 M 4058.73 3053.29 L 4060.88 3053.29 M 4064.82 3049.53 L 4064.82 3052.21 L 4064.99 3052.75 L 4065.35 3053.11 L 4065.89 3053.29 L 4066.25 3053.29 L 4066.78 3053.11 L 4067.14 3052.75 L 4067.32 3052.21 L 4067.32 3049.53 M 4071.01 3050.06 L 4070.65 3049.71 L 4070.11 3049.53 L 4069.4 3049.53 L 4068.86 3049.71 L 4068.5 3050.06 L 4068.5 3050.42 L 4068.68 3050.78 L 4068.86 3050.96 L 4069.22 3051.14 L 4070.29 3051.5 L 4070.65 3051.67 L 4070.83 3051.85 L 4071.01 3052.21 L 4071.01 3052.75 L 4070.65 3053.11 L 4070.11 3053.29 L 4069.4 3053.29 L 4068.86 3053.11 L 4068.5 3052.75 M 4072.19 3049.53 L 4072.19 3053.29 M 4072.19 3049.53 L 4073.8 3049.53 L 4074.34 3049.71 L 4074.51 3049.89 L 4074.69 3050.24 L 4074.69 3050.6 L 4074.51 3050.96 L 4074.34 3051.14 L 4073.8 3051.32 M 4072.19 3051.32 L 4073.8 3051.32 L 4074.34 3051.5 L 4074.51 3051.67 L 4074.69 3052.03 L 4074.69 3052.57 L 4074.51 3052.93 L 4074.34 3053.11 L 4073.8 3053.29 L 4072.19 3053.29 M 4078.63 3049.53 L 4078.63 3053.29 M 4078.63 3049.53 L 4080.96 3049.53 M 4078.63 3051.32 L 4080.06 3051.32 M 4082.14 3049.53 L 4082.14 3053.29 M 4083.32 3049.53 L 4083.32 3053.29 M 4083.32 3053.29 L 4085.47 3053.29 M 4087.9 3049.53 L 4087.9 3053.29 M 4086.65 3049.53 L 4089.15 3049.53 M 4090.33 3049.53 L 4090.33 3053.29 M 4090.33 3049.53 L 4092.66 3049.53 M 4090.33 3051.32 L 4091.77 3051.32 M 4090.33 3053.29 L 4092.66 3053.29 M 4093.84 3049.53 L 4093.84 3053.29 M 4093.84 3049.53 L 4095.45 3049.53 L 4095.99 3049.71 L 4096.17 3049.89 L 4096.35 3050.24 L 4096.35 3050.6 L 4096.17 3050.96 L 4095.99 3051.14 L 4095.45 3051.32 L 4093.84 3051.32 M 4095.09 3051.32 L 4096.35 3053.29 M 4075.8 3057.46 L 4077.23 3061.22 M 4078.67 3057.46 L 4077.23 3061.22 M 4080.03 3058.36 L 4080.03 3058.18 L 4080.21 3057.82 L 4080.38 3057.64 L 4080.74 3057.46 L 4081.46 3057.46 L 4081.82 3057.64 L 4081.99 3057.82 L 4082.17 3058.18 L 4082.17 3058.54 L 4081.99 3058.9 L 4081.64 3059.43 L 4079.85 3061.22 L 4082.35 3061.22 M 4083.71 3060.33 L 4083.53 3060.51 L 4083.71 3060.69 L 4083.89 3060.51 L 4083.71 3060.33 M 4086.15 3057.46 L 4085.61 3057.64 L 4085.25 3058.18 L 4085.07 3059.07 L 4085.07 3059.61 L 4085.25 3060.51 L 4085.61 3061.04 L 4086.15 3061.22 L 4086.5 3061.22 L 4087.04 3061.04 L 4087.4 3060.51 L 4087.58 3059.61 L 4087.58 3059.07 L 4087.4 3058.18 L 4087.04 3057.64 L 4086.5 3057.46 L 4086.15 3057.46" fill="none"  stroke-width="0.8"  /></g><g c_partid="part_pcbtext" c_etype="" c_origin="4025.45,3086.79" c_rotation="0" c_mirror="0" id="gge9" locked="0" layerid="3" c_shapetype="group" display="none"><path c_fontsize="4.5" c_fontfamily="" c_text="MC0805B103K500CT" d="M 4025.4501 3082.25 L 4025.4501 3086.54 M 4025.4501 3082.25 L 4027.0901 3086.54 M 4028.7201 3082.25 L 4027.0901 3086.54 M 4028.7201 3082.25 L 4028.7201 3086.54 M 4033.1401 3083.27 L 4032.9401 3082.86 L 4032.5301 3082.45 L 4032.1201 3082.25 L 4031.3001 3082.25 L 4030.8901 3082.45 L 4030.4801 3082.86 L 4030.2801 3083.27 L 4030.0701 3083.89 L 4030.0701 3084.91 L 4030.2801 3085.52 L 4030.4801 3085.93 L 4030.8901 3086.34 L 4031.3001 3086.54 L 4032.1201 3086.54 L 4032.5301 3086.34 L 4032.9401 3085.93 L 4033.1401 3085.52 M 4035.7201 3082.25 L 4035.1001 3082.45 L 4034.7001 3083.07 L 4034.4901 3084.09 L 4034.4901 3084.7 L 4034.7001 3085.73 L 4035.1001 3086.34 L 4035.7201 3086.54 L 4036.1301 3086.54 L 4036.7401 3086.34 L 4037.1501 3085.73 L 4037.3501 3084.7 L 4037.3501 3084.09 L 4037.1501 3083.07 L 4036.7401 3082.45 L 4036.1301 3082.25 L 4035.7201 3082.25 M 4039.7301 3082.25 L 4039.1101 3082.45 L 4038.9101 3082.86 L 4038.9101 3083.27 L 4039.1101 3083.68 L 4039.5201 3083.89 L 4040.3401 3084.09 L 4040.9501 3084.29 L 4041.3601 3084.7 L 4041.5701 3085.11 L 4041.5701 3085.73 L 4041.3601 3086.14 L 4041.1601 3086.34 L 4040.5501 3086.54 L 4039.7301 3086.54 L 4039.1101 3086.34 L 4038.9101 3086.14 L 4038.7001 3085.73 L 4038.7001 3085.11 L 4038.9101 3084.7 L 4039.3201 3084.29 L 4039.9301 3084.09 L 4040.7501 3083.89 L 4041.1601 3083.68 L 4041.3601 3083.27 L 4041.3601 3082.86 L 4041.1601 3082.45 L 4040.5501 3082.25 L 4039.7301 3082.25 M 4044.1501 3082.25 L 4043.5301 3082.45 L 4043.1201 3083.07 L 4042.9201 3084.09 L 4042.9201 3084.7 L 4043.1201 3085.73 L 4043.5301 3086.34 L 4044.1501 3086.54 L 4044.5501 3086.54 L 4045.1701 3086.34 L 4045.5801 3085.73 L 4045.7801 3084.7 L 4045.7801 3084.09 L 4045.5801 3083.07 L 4045.1701 3082.45 L 4044.5501 3082.25 L 4044.1501 3082.25 M 4049.5901 3082.25 L 4047.5401 3082.25 L 4047.3401 3084.09 L 4047.5401 3083.89 L 4048.1501 3083.68 L 4048.7701 3083.68 L 4049.3801 3083.89 L 4049.7901 3084.29 L 4050.0001 3084.91 L 4050.0001 3085.32 L 4049.7901 3085.93 L 4049.3801 3086.34 L 4048.7701 3086.54 L 4048.1501 3086.54 L 4047.5401 3086.34 L 4047.3401 3086.14 L 4047.1301 3085.73 M 4051.3501 3082.25 L 4051.3501 3086.54 M 4051.3501 3082.25 L 4053.1901 3082.25 L 4053.8001 3082.45 L 4054.0001 3082.66 L 4054.2101 3083.07 L 4054.2101 3083.48 L 4054.0001 3083.89 L 4053.8001 3084.09 L 4053.1901 3084.29 M 4051.3501 3084.29 L 4053.1901 3084.29 L 4053.8001 3084.5 L 4054.0001 3084.7 L 4054.2101 3085.11 L 4054.2101 3085.73 L 4054.0001 3086.14 L 4053.8001 3086.34 L 4053.1901 3086.54 L 4051.3501 3086.54 M 4055.5601 3083.07 L 4055.9701 3082.86 L 4056.5801 3082.25 L 4056.5801 3086.54 M 4059.1601 3082.25 L 4058.5501 3082.45 L 4058.1401 3083.07 L 4057.9301 3084.09 L 4057.9301 3084.7 L 4058.1401 3085.73 L 4058.5501 3086.34 L 4059.1601 3086.54 L 4059.5701 3086.54 L 4060.1801 3086.34 L 4060.5901 3085.73 L 4060.8001 3084.7 L 4060.8001 3084.09 L 4060.5901 3083.07 L 4060.1801 3082.45 L 4059.5701 3082.25 L 4059.1601 3082.25 M 4062.5501 3082.25 L 4064.8001 3082.25 L 4063.5801 3083.89 L 4064.1901 3083.89 L 4064.6001 3084.09 L 4064.8001 3084.29 L 4065.0101 3084.91 L 4065.0101 3085.32 L 4064.8001 3085.93 L 4064.4001 3086.34 L 4063.7801 3086.54 L 4063.1701 3086.54 L 4062.5501 3086.34 L 4062.3501 3086.14 L 4062.1501 3085.73 M 4066.3601 3082.25 L 4066.3601 3086.54 M 4069.2201 3082.25 L 4066.3601 3085.11 M 4067.3801 3084.09 L 4069.2201 3086.54 M 4073.0301 3082.25 L 4070.9801 3082.25 L 4070.7801 3084.09 L 4070.9801 3083.89 L 4071.6001 3083.68 L 4072.2101 3083.68 L 4072.8201 3083.89 L 4073.2301 3084.29 L 4073.4401 3084.91 L 4073.4401 3085.32 L 4073.2301 3085.93 L 4072.8201 3086.34 L 4072.2101 3086.54 L 4071.6001 3086.54 L 4070.9801 3086.34 L 4070.7801 3086.14 L 4070.5701 3085.73 M 4076.0101 3082.25 L 4075.4001 3082.45 L 4074.9901 3083.07 L 4074.7901 3084.09 L 4074.7901 3084.7 L 4074.9901 3085.73 L 4075.4001 3086.34 L 4076.0101 3086.54 L 4076.4201 3086.54 L 4077.0401 3086.34 L 4077.4501 3085.73 L 4077.6501 3084.7 L 4077.6501 3084.09 L 4077.4501 3083.07 L 4077.0401 3082.45 L 4076.4201 3082.25 L 4076.0101 3082.25 M 4080.2301 3082.25 L 4079.6101 3082.45 L 4079.2001 3083.07 L 4079.0001 3084.09 L 4079.0001 3084.7 L 4079.2001 3085.73 L 4079.6101 3086.34 L 4080.2301 3086.54 L 4080.6401 3086.54 L 4081.2501 3086.34 L 4081.6601 3085.73 L 4081.8601 3084.7 L 4081.8601 3084.09 L 4081.6601 3083.07 L 4081.2501 3082.45 L 4080.6401 3082.25 L 4080.2301 3082.25 M 4086.2801 3083.27 L 4086.0801 3082.86 L 4085.6701 3082.45 L 4085.2601 3082.25 L 4084.4401 3082.25 L 4084.0301 3082.45 L 4083.6201 3082.86 L 4083.4201 3083.27 L 4083.2101 3083.89 L 4083.2101 3084.91 L 4083.4201 3085.52 L 4083.6201 3085.93 L 4084.0301 3086.34 L 4084.4401 3086.54 L 4085.2601 3086.54 L 4085.6701 3086.34 L 4086.0801 3085.93 L 4086.2801 3085.52 M 4089.0601 3082.25 L 4089.0601 3086.54 M 4087.6301 3082.25 L 4090.5001 3082.25" fill="none"  stroke-width="0.6" c_note="note_name" /></g><g c_partid="part_pcbtext" c_etype="" c_origin="4090.5,3075" c_rotation="180" c_mirror="0" id="gge15" locked="0" layerid="3" c_shapetype="group" ><path c_fontsize="4.5" c_fontfamily="" c_text="C1" d="M 4087.4301 3078.52 L 4087.6401 3078.93 L 4088.0501 3079.34 L 4088.4501 3079.54 L 4089.2701 3079.54 L 4089.6801 3079.34 L 4090.0901 3078.93 L 4090.3001 3078.52 L 4090.5001 3077.9 L 4090.5001 3076.88 L 4090.3001 3076.27 L 4090.0901 3075.86 L 4089.6801 3075.45 L 4089.2701 3075.25 L 4088.4501 3075.25 L 4088.0501 3075.45 L 4087.6401 3075.86 L 4087.4301 3076.27 M 4086.0801 3078.72 L 4085.6701 3078.93 L 4085.0601 3079.54 L 4085.0601 3075.25" fill="none"  stroke-width="0.6" c_note="note_pre" /></g><g c_partid="part_pcbtext" c_etype="" c_origin="4106.167,3098.8" c_rotation="90" c_mirror="0" id="gge63" locked="0" layerid="3" c_shapetype="group" display="none"><path c_fontsize="4.5" c_fontfamily="" c_text="0.1uF" d="M 4101.6265 3097.5695 L 4101.8265 3098.1895 L 4102.4465 3098.5995 L 4103.4665 3098.7995 L 4104.0765 3098.7995 L 4105.1065 3098.5995 L 4105.7165 3098.1895 L 4105.9165 3097.5695 L 4105.9165 3097.1595 L 4105.7165 3096.5495 L 4105.1065 3096.1395 L 4104.0765 3095.9395 L 4103.4665 3095.9395 L 4102.4465 3096.1395 L 4101.8265 3096.5495 L 4101.6265 3097.1595 L 4101.6265 3097.5695 M 4104.8965 3094.3795 L 4105.1065 3094.5895 L 4105.3065 3094.3795 L 4105.1065 3094.1795 L 4104.8965 3094.3795 M 4102.4465 3092.8295 L 4102.2365 3092.4195 L 4101.6265 3091.7995 L 4105.9165 3091.7995 M 4103.0565 3090.4495 L 4105.1065 3090.4495 L 4105.7165 3090.2495 L 4105.9165 3089.8395 L 4105.9165 3089.2295 L 4105.7165 3088.8195 L 4105.1065 3088.1995 M 4103.0565 3088.1995 L 4105.9165 3088.1995 M 4101.6265 3086.8495 L 4105.9165 3086.8495 M 4101.6265 3086.8495 L 4101.6265 3084.1995 M 4103.6665 3086.8495 L 4103.6665 3085.2195" fill="none"  stroke-width="0.6" c_note="note_name" /></g><g c_partid="part_pcbtext" c_etype="" c_origin="4113.167,3098.8" c_rotation="90" c_mirror="0" id="gge69" locked="0" layerid="3" c_shapetype="group" ><path c_fontsize="4.5" c_fontfamily="" c_text="C2" d="M 4109.6465 3095.7295 L 4109.2365 3095.9395 L 4108.8265 3096.3495 L 4108.6265 3096.7495 L 4108.6265 3097.5695 L 4108.8265 3097.9795 L 4109.2365 3098.3895 L 4109.6465 3098.5995 L 4110.2665 3098.7995 L 4111.2865 3098.7995 L 4111.8965 3098.5995 L 4112.3065 3098.3895 L 4112.7165 3097.9795 L 4112.9165 3097.5695 L 4112.9165 3096.7495 L 4112.7165 3096.3495 L 4112.3065 3095.9395 L 4111.8965 3095.7295 M 4109.6465 3094.1795 L 4109.4465 3094.1795 L 4109.0365 3093.9695 L 4108.8265 3093.7695 L 4108.6265 3093.3595 L 4108.6265 3092.5395 L 4108.8265 3092.1295 L 4109.0365 3091.9295 L 4109.4465 3091.7195 L 4109.8565 3091.7195 L 4110.2665 3091.9295 L 4110.8765 3092.3395 L 4112.9165 3094.3795 L 4112.9165 3091.5195" fill="none"  stroke-width="0.6" c_note="note_pre" /></g><g c_partid="part_pcbtext" c_etype="" c_origin="4136.457,3082.85" c_rotation="90" c_mirror="0" id="gge159" locked="0" layerid="3" c_shapetype="group" display="none"><path c_fontsize="4.5" c_fontfamily="" c_text="10uF" d="M 4132.7365 3082.8501 L 4132.5265 3082.4401 L 4131.9165 3081.8301 L 4136.2065 3081.8301 M 4131.9165 3079.2501 L 4132.1165 3079.8601 L 4132.7365 3080.2701 L 4133.7565 3080.4801 L 4134.3665 3080.4801 L 4135.3965 3080.2701 L 4136.0065 3079.8601 L 4136.2065 3079.2501 L 4136.2065 3078.8401 L 4136.0065 3078.2301 L 4135.3965 3077.8201 L 4134.3665 3077.6101 L 4133.7565 3077.6101 L 4132.7365 3077.8201 L 4132.1165 3078.2301 L 4131.9165 3078.8401 L 4131.9165 3079.2501 M 4133.3465 3076.2601 L 4135.3965 3076.2601 L 4136.0065 3076.0601 L 4136.2065 3075.6501 L 4136.2065 3075.0401 L 4136.0065 3074.6301 L 4135.3965 3074.0101 M 4133.3465 3074.0101 L 4136.2065 3074.0101 M 4131.9165 3072.6601 L 4136.2065 3072.6601 M 4131.9165 3072.6601 L 4131.9165 3070.0001 M 4133.9565 3072.6601 L 4133.9565 3071.0301" fill="none"  stroke-width="0.6" c_note="note_name" /></g><g c_partid="part_pcbtext" c_etype="" c_origin="4124.667,3070" c_rotation="270" c_mirror="0" id="gge165" locked="0" layerid="3" c_shapetype="group" ><path c_fontsize="4.5" c_fontfamily="" c_text="C3" d="M 4128.1865 3073.07 L 4128.5965 3072.86 L 4129.0065 3072.45 L 4129.2065 3072.05 L 4129.2065 3071.23 L 4129.0065 3070.82 L 4128.5965 3070.41 L 4128.1865 3070.2 L 4127.5665 3070 L 4126.5465 3070 L 4125.9365 3070.2 L 4125.5265 3070.41 L 4125.1165 3070.82 L 4124.9165 3071.23 L 4124.9165 3072.05 L 4125.1165 3072.45 L 4125.5265 3072.86 L 4125.9365 3073.07 M 4129.2065 3074.83 L 4129.2065 3077.08 L 4127.5665 3075.85 L 4127.5665 3076.46 L 4127.3665 3076.87 L 4127.1665 3077.08 L 4126.5465 3077.28 L 4126.1365 3077.28 L 4125.5265 3077.08 L 4125.1165 3076.67 L 4124.9165 3076.05 L 4124.9165 3075.44 L 4125.1165 3074.83 L 4125.3165 3074.62 L 4125.7265 3074.42" fill="none"  stroke-width="0.6" c_note="note_pre" /></g><g c_partid="part_pcbtext" c_etype="" c_origin="4090.5,3086.5" c_rotation="0" c_mirror="0" id="gge261" locked="0" layerid="3" c_shapetype="group" display="none"><path c_fontsize="4.5" c_fontfamily="" c_text="742792022" d="M 4093.36 3081.96 L 4091.32 3086.25 M 4090.5 3081.96 L 4093.36 3081.96 M 4096.76 3081.96 L 4094.71 3084.82 L 4097.78 3084.82 M 4096.76 3081.96 L 4096.76 3086.25 M 4099.34 3082.98 L 4099.34 3082.78 L 4099.54 3082.37 L 4099.75 3082.16 L 4100.15 3081.96 L 4100.97 3081.96 L 4101.38 3082.16 L 4101.59 3082.37 L 4101.79 3082.78 L 4101.79 3083.19 L 4101.59 3083.6 L 4101.18 3084.21 L 4099.13 3086.25 L 4102 3086.25 M 4106.21 3081.96 L 4104.16 3086.25 M 4103.35 3081.96 L 4106.21 3081.96 M 4110.22 3083.39 L 4110.01 3084 L 4109.6 3084.41 L 4108.99 3084.62 L 4108.79 3084.62 L 4108.17 3084.41 L 4107.76 3084 L 4107.56 3083.39 L 4107.56 3083.19 L 4107.76 3082.57 L 4108.17 3082.16 L 4108.79 3081.96 L 4108.99 3081.96 L 4109.6 3082.16 L 4110.01 3082.57 L 4110.22 3083.39 L 4110.22 3084.41 L 4110.01 3085.44 L 4109.6 3086.05 L 4108.99 3086.25 L 4108.58 3086.25 L 4107.97 3086.05 L 4107.76 3085.64 M 4111.77 3082.98 L 4111.77 3082.78 L 4111.98 3082.37 L 4112.18 3082.16 L 4112.59 3081.96 L 4113.41 3081.96 L 4113.82 3082.16 L 4114.02 3082.37 L 4114.23 3082.78 L 4114.23 3083.19 L 4114.02 3083.6 L 4113.61 3084.21 L 4111.57 3086.25 L 4114.43 3086.25 M 4117.01 3081.96 L 4116.4 3082.16 L 4115.99 3082.78 L 4115.78 3083.8 L 4115.78 3084.41 L 4115.99 3085.44 L 4116.4 3086.05 L 4117.01 3086.25 L 4117.42 3086.25 L 4118.03 3086.05 L 4118.44 3085.44 L 4118.65 3084.41 L 4118.65 3083.8 L 4118.44 3082.78 L 4118.03 3082.16 L 4117.42 3081.96 L 4117.01 3081.96 M 4120.2 3082.98 L 4120.2 3082.78 L 4120.4 3082.37 L 4120.61 3082.16 L 4121.02 3081.96 L 4121.84 3081.96 L 4122.25 3082.16 L 4122.45 3082.37 L 4122.65 3082.78 L 4122.65 3083.19 L 4122.45 3083.6 L 4122.04 3084.21 L 4120 3086.25 L 4122.86 3086.25 M 4124.41 3082.98 L 4124.41 3082.78 L 4124.62 3082.37 L 4124.82 3082.16 L 4125.23 3081.96 L 4126.05 3081.96 L 4126.46 3082.16 L 4126.66 3082.37 L 4126.87 3082.78 L 4126.87 3083.19 L 4126.66 3083.6 L 4126.25 3084.21 L 4124.21 3086.25 L 4127.07 3086.25" fill="none"  stroke-width="0.6" c_note="note_name" /></g><g c_partid="part_pcbtext" c_etype="" c_origin="4087.585,3093.5" c_rotation="0" c_mirror="0" id="gge267" locked="0" layerid="3" c_shapetype="group" ><path c_fontsize="4.5" c_fontfamily="" c_text="L1" d="M 4087.585 3088.96 L 4087.585 3093.25 M 4087.585 3093.25 L 4090.035 3093.25 M 4091.385 3089.78 L 4091.795 3089.57 L 4092.415 3088.96 L 4092.415 3093.25" fill="none"  stroke-width="0.6" c_note="note_pre" /></g><g c_partid="part_pcbtext" c_etype="" c_origin="4093.29,3134.854" c_rotation="90" c_mirror="0" id="gge327" locked="0" layerid="3" c_shapetype="group" display="none"><path c_fontsize="4.5" c_fontfamily="" c_text="GSB316441CEU" d="M 4089.77 3131.7838 L 4089.36 3131.9938 L 4088.95 3132.4038 L 4088.75 3132.8038 L 4088.75 3133.6238 L 4088.95 3134.0338 L 4089.36 3134.4438 L 4089.77 3134.6538 L 4090.39 3134.8538 L 4091.41 3134.8538 L 4092.02 3134.6538 L 4092.43 3134.4438 L 4092.84 3134.0338 L 4093.04 3133.6238 L 4093.04 3132.8038 L 4092.84 3132.4038 L 4092.43 3131.9938 L 4092.02 3131.7838 L 4091.41 3131.7838 M 4091.41 3132.8038 L 4091.41 3131.7838 M 4089.36 3127.5738 L 4088.95 3127.9838 L 4088.75 3128.5938 L 4088.75 3129.4138 L 4088.95 3130.0238 L 4089.36 3130.4338 L 4089.77 3130.4338 L 4090.18 3130.2338 L 4090.39 3130.0238 L 4090.59 3129.6138 L 4091 3128.3938 L 4091.2 3127.9838 L 4091.41 3127.7738 L 4091.82 3127.5738 L 4092.43 3127.5738 L 4092.84 3127.9838 L 4093.04 3128.5938 L 4093.04 3129.4138 L 4092.84 3130.0238 L 4092.43 3130.4338 M 4088.75 3126.2238 L 4093.04 3126.2238 M 4088.75 3126.2238 L 4088.75 3124.3838 L 4088.95 3123.7638 L 4089.16 3123.5638 L 4089.57 3123.3538 L 4089.98 3123.3538 L 4090.39 3123.5638 L 4090.59 3123.7638 L 4090.79 3124.3838 M 4090.79 3126.2238 L 4090.79 3124.3838 L 4091 3123.7638 L 4091.2 3123.5638 L 4091.61 3123.3538 L 4092.23 3123.3538 L 4092.64 3123.5638 L 4092.84 3123.7638 L 4093.04 3124.3838 L 4093.04 3126.2238 M 4088.75 3121.6038 L 4088.75 3119.3538 L 4090.39 3120.5738 L 4090.39 3119.9638 L 4090.59 3119.5538 L 4090.79 3119.3538 L 4091.41 3119.1438 L 4091.82 3119.1438 L 4092.43 3119.3538 L 4092.84 3119.7538 L 4093.04 3120.3738 L 4093.04 3120.9838 L 4092.84 3121.6038 L 4092.64 3121.8038 L 4092.23 3122.0038 M 4089.57 3117.7938 L 4089.36 3117.3838 L 4088.75 3116.7738 L 4093.04 3116.7738 M 4089.36 3112.9638 L 4088.95 3113.1738 L 4088.75 3113.7838 L 4088.75 3114.1938 L 4088.95 3114.8038 L 4089.57 3115.2138 L 4090.59 3115.4238 L 4091.61 3115.4238 L 4092.43 3115.2138 L 4092.84 3114.8038 L 4093.04 3114.1938 L 4093.04 3113.9938 L 4092.84 3113.3738 L 4092.43 3112.9638 L 4091.82 3112.7638 L 4091.61 3112.7638 L 4091 3112.9638 L 4090.59 3113.3738 L 4090.39 3113.9938 L 4090.39 3114.1938 L 4090.59 3114.8038 L 4091 3115.2138 L 4091.61 3115.4238 M 4088.75 3109.3638 L 4091.61 3111.4138 L 4091.61 3108.3438 M 4088.75 3109.3638 L 4093.04 3109.3638 M 4088.75 3104.9538 L 4091.61 3106.9938 L 4091.61 3103.9238 M 4088.75 3104.9538 L 4093.04 3104.9538 M 4089.57 3102.5738 L 4089.36 3102.1638 L 4088.75 3101.5538 L 4093.04 3101.5538 M 4089.77 3097.1338 L 4089.36 3097.3438 L 4088.95 3097.7538 L 4088.75 3098.1538 L 4088.75 3098.9738 L 4088.95 3099.3838 L 4089.36 3099.7938 L 4089.77 3100.0038 L 4090.39 3100.2038 L 4091.41 3100.2038 L 4092.02 3100.0038 L 4092.43 3099.7938 L 4092.84 3099.3838 L 4093.04 3098.9738 L 4093.04 3098.1538 L 4092.84 3097.7538 L 4092.43 3097.3438 L 4092.02 3097.1338 M 4088.75 3095.7838 L 4093.04 3095.7838 M 4088.75 3095.7838 L 4088.75 3093.1238 M 4090.79 3095.7838 L 4090.79 3094.1538 M 4093.04 3095.7838 L 4093.04 3093.1238 M 4088.75 3091.7738 L 4091.82 3091.7738 L 4092.43 3091.5738 L 4092.84 3091.1638 L 4093.04 3090.5538 L 4093.04 3090.1438 L 4092.84 3089.5238 L 4092.43 3089.1138 L 4091.82 3088.9138 L 4088.75 3088.9138" fill="none"  stroke-width="0.6" c_note="note_name" /></g><g c_partid="part_pcbtext" c_etype="" c_origin="4067.5,3114.5" c_rotation="0" c_mirror="0" id="gge333" locked="0" layerid="3" c_shapetype="group" ><path c_fontsize="4.5" c_fontfamily="" c_text="USB_IN" d="M 4067.5 3109.96 L 4067.5 3113.03 L 4067.7 3113.64 L 4068.11 3114.05 L 4068.73 3114.25 L 4069.14 3114.25 L 4069.75 3114.05 L 4070.16 3113.64 L 4070.36 3113.03 L 4070.36 3109.96 M 4074.58 3110.57 L 4074.17 3110.16 L 4073.55 3109.96 L 4072.74 3109.96 L 4072.12 3110.16 L 4071.71 3110.57 L 4071.71 3110.98 L 4071.92 3111.39 L 4072.12 3111.6 L 4072.53 3111.8 L 4073.76 3112.21 L 4074.17 3112.41 L 4074.37 3112.62 L 4074.58 3113.03 L 4074.58 3113.64 L 4074.17 3114.05 L 4073.55 3114.25 L 4072.74 3114.25 L 4072.12 3114.05 L 4071.71 3113.64 M 4075.93 3109.96 L 4075.93 3114.25 M 4075.93 3109.96 L 4077.77 3109.96 L 4078.38 3110.16 L 4078.59 3110.37 L 4078.79 3110.78 L 4078.79 3111.19 L 4078.59 3111.6 L 4078.38 3111.8 L 4077.77 3112 M 4075.93 3112 L 4077.77 3112 L 4078.38 3112.21 L 4078.59 3112.41 L 4078.79 3112.82 L 4078.79 3113.44 L 4078.59 3113.85 L 4078.38 3114.05 L 4077.77 3114.25 L 4075.93 3114.25 M 4080.14 3115.69 L 4083.82 3115.69 M 4085.17 3109.96 L 4085.17 3114.25 M 4086.52 3109.96 L 4086.52 3114.25 M 4086.52 3109.96 L 4089.39 3114.25 M 4089.39 3109.96 L 4089.39 3114.25" fill="none"  stroke-width="0.6" c_note="note_pre" /></g><g c_partid="part_pcbtext" c_etype="" c_origin="4214.35,3286.654" c_rotation="90" c_mirror="0" id="gge558" locked="0" layerid="3" c_shapetype="group" display="none"><path c_fontsize="4.5" c_fontfamily="" c_text="USB_3.0_TYPE_A_RECEPTACLE_PTH_MOLEX _48405-0003" d="M 4209.8101 3286.654 L 4212.8801 3286.654 L 4213.4901 3286.454 L 4213.9001 3286.044 L 4214.1001 3285.424 L 4214.1001 3285.014 L 4213.9001 3284.404 L 4213.4901 3283.994 L 4212.8801 3283.794 L 4209.8101 3283.794 M 4210.4201 3279.574 L 4210.0101 3279.984 L 4209.8101 3280.604 L 4209.8101 3281.414 L 4210.0101 3282.034 L 4210.4201 3282.444 L 4210.8301 3282.444 L 4211.2401 3282.234 L 4211.4501 3282.034 L 4211.6501 3281.624 L 4212.0601 3280.394 L 4212.2601 3279.984 L 4212.4701 3279.784 L 4212.8801 3279.574 L 4213.4901 3279.574 L 4213.9001 3279.984 L 4214.1001 3280.604 L 4214.1001 3281.414 L 4213.9001 3282.034 L 4213.4901 3282.444 M 4209.8101 3278.224 L 4214.1001 3278.224 M 4209.8101 3278.224 L 4209.8101 3276.384 L 4210.0101 3275.774 L 4210.2201 3275.564 L 4210.6301 3275.364 L 4211.0401 3275.364 L 4211.4501 3275.564 L 4211.6501 3275.774 L 4211.8501 3276.384 M 4211.8501 3278.224 L 4211.8501 3276.384 L 4212.0601 3275.774 L 4212.2601 3275.564 L 4212.6701 3275.364 L 4213.2901 3275.364 L 4213.7001 3275.564 L 4213.9001 3275.774 L 4214.1001 3276.384 L 4214.1001 3278.224 M 4215.5401 3274.014 L 4215.5401 3270.334 M 4209.8101 3268.574 L 4209.8101 3266.324 L 4211.4501 3267.554 L 4211.4501 3266.934 L 4211.6501 3266.524 L 4211.8501 3266.324 L 4212.4701 3266.114 L 4212.8801 3266.114 L 4213.4901 3266.324 L 4213.9001 3266.734 L 4214.1001 3267.344 L 4214.1001 3267.954 L 4213.9001 3268.574 L 4213.7001 3268.774 L 4213.2901 3268.984 M 4213.0801 3264.564 L 4213.2901 3264.764 L 4213.4901 3264.564 L 4213.2901 3264.354 L 4213.0801 3264.564 M 4209.8101 3261.784 L 4210.0101 3262.394 L 4210.6301 3262.804 L 4211.6501 3263.004 L 4212.2601 3263.004 L 4213.2901 3262.804 L 4213.9001 3262.394 L 4214.1001 3261.784 L 4214.1001 3261.374 L 4213.9001 3260.754 L 4213.2901 3260.354 L 4212.2601 3260.144 L 4211.6501 3260.144 L 4210.6301 3260.354 L 4210.0101 3260.754 L 4209.8101 3261.374 L 4209.8101 3261.784 M 4215.5401 3258.794 L 4215.5401 3255.114 M 4209.8101 3252.334 L 4214.1001 3252.334 M 4209.8101 3253.764 L 4209.8101 3250.904 M 4209.8101 3249.554 L 4211.8501 3247.914 L 4214.1001 3247.914 M 4209.8101 3246.274 L 4211.8501 3247.914 M 4209.8101 3244.924 L 4214.1001 3244.924 M 4209.8101 3244.924 L 4209.8101 3243.084 L 4210.0101 3242.474 L 4210.2201 3242.264 L 4210.6301 3242.064 L 4211.2401 3242.064 L 4211.6501 3242.264 L 4211.8501 3242.474 L 4212.0601 3243.084 L 4212.0601 3244.924 M 4209.8101 3240.714 L 4214.1001 3240.714 M 4209.8101 3240.714 L 4209.8101 3238.054 M 4211.8501 3240.714 L 4211.8501 3239.074 M 4214.1001 3240.714 L 4214.1001 3238.054 M 4215.5401 3236.704 L 4215.5401 3233.024 M 4209.8101 3230.034 L 4214.1001 3231.674 M 4209.8101 3230.034 L 4214.1001 3228.404 M 4212.6701 3231.054 L 4212.6701 3229.014 M 4215.5401 3227.054 L 4215.5401 3223.364 M 4209.8101 3222.014 L 4214.1001 3222.014 M 4209.8101 3222.014 L 4209.8101 3220.174 L 4210.0101 3219.564 L 4210.2201 3219.354 L 4210.6301 3219.154 L 4211.0401 3219.154 L 4211.4501 3219.354 L 4211.6501 3219.564 L 4211.8501 3220.174 L 4211.8501 3222.014 M 4211.8501 3220.584 L 4214.1001 3219.154 M 4209.8101 3217.804 L 4214.1001 3217.804 M 4209.8101 3217.804 L 4209.8101 3215.144 M 4211.8501 3217.804 L 4211.8501 3216.164 M 4214.1001 3217.804 L 4214.1001 3215.144 M 4210.8301 3210.724 L 4210.4201 3210.934 L 4210.0101 3211.344 L 4209.8101 3211.754 L 4209.8101 3212.564 L 4210.0101 3212.974 L 4210.4201 3213.384 L 4210.8301 3213.594 L 4211.4501 3213.794 L 4212.4701 3213.794 L 4213.0801 3213.594 L 4213.4901 3213.384 L 4213.9001 3212.974 L 4214.1001 3212.564 L 4214.1001 3211.754 L 4213.9001 3211.344 L 4213.4901 3210.934 L 4213.0801 3210.724 M 4209.8101 3209.374 L 4214.1001 3209.374 M 4209.8101 3209.374 L 4209.8101 3206.714 M 4211.8501 3209.374 L 4211.8501 3207.744 M 4214.1001 3209.374 L 4214.1001 3206.714 M 4209.8101 3205.364 L 4214.1001 3205.364 M 4209.8101 3205.364 L 4209.8101 3203.524 L 4210.0101 3202.914 L 4210.2201 3202.704 L 4210.6301 3202.504 L 4211.2401 3202.504 L 4211.6501 3202.704 L 4211.8501 3202.914 L 4212.0601 3203.524 L 4212.0601 3205.364 M 4209.8101 3199.724 L 4214.1001 3199.724 M 4209.8101 3201.154 L 4209.8101 3198.294 M 4209.8101 3195.304 L 4214.1001 3196.944 M 4209.8101 3195.304 L 4214.1001 3193.664 M 4212.6701 3196.324 L 4212.6701 3194.284 M 4210.8301 3189.254 L 4210.4201 3189.454 L 4210.0101 3189.864 L 4209.8101 3190.274 L 4209.8101 3191.094 L 4210.0101 3191.504 L 4210.4201 3191.904 L 4210.8301 3192.114 L 4211.4501 3192.314 L 4212.4701 3192.314 L 4213.0801 3192.114 L 4213.4901 3191.904 L 4213.9001 3191.504 L 4214.1001 3191.094 L 4214.1001 3190.274 L 4213.9001 3189.864 L 4213.4901 3189.454 L 4213.0801 3189.254 M 4209.8101 3187.904 L 4214.1001 3187.904 M 4214.1001 3187.904 L 4214.1001 3185.444 M 4209.8101 3184.094 L 4214.1001 3184.094 M 4209.8101 3184.094 L 4209.8101 3181.434 M 4211.8501 3184.094 L 4211.8501 3182.454 M 4214.1001 3184.094 L 4214.1001 3181.434 M 4215.5401 3180.084 L 4215.5401 3176.404 M 4209.8101 3175.054 L 4214.1001 3175.054 M 4209.8101 3175.054 L 4209.8101 3173.214 L 4210.0101 3172.604 L 4210.2201 3172.394 L 4210.6301 3172.194 L 4211.2401 3172.194 L 4211.6501 3172.394 L 4211.8501 3172.604 L 4212.0601 3173.214 L 4212.0601 3175.054 M 4209.8101 3169.404 L 4214.1001 3169.404 M 4209.8101 3170.844 L 4209.8101 3167.974 M 4209.8101 3166.624 L 4214.1001 3166.624 M 4209.8101 3163.764 L 4214.1001 3163.764 M 4211.8501 3166.624 L 4211.8501 3163.764 M 4215.5401 3162.414 L 4215.5401 3158.734 M 4209.8101 3157.384 L 4214.1001 3157.384 M 4209.8101 3157.384 L 4214.1001 3155.744 M 4209.8101 3154.104 L 4214.1001 3155.744 M 4209.8101 3154.104 L 4214.1001 3154.104 M 4209.8101 3151.534 L 4210.0101 3151.944 L 4210.4201 3152.354 L 4210.8301 3152.554 L 4211.4501 3152.754 L 4212.4701 3152.754 L 4213.0801 3152.554 L 4213.4901 3152.354 L 4213.9001 3151.944 L 4214.1001 3151.534 L 4214.1001 3150.714 L 4213.9001 3150.304 L 4213.4901 3149.894 L 4213.0801 3149.694 L 4212.4701 3149.484 L 4211.4501 3149.484 L 4210.8301 3149.694 L 4210.4201 3149.894 L 4210.0101 3150.304 L 4209.8101 3150.714 L 4209.8101 3151.534 M 4209.8101 3148.134 L 4214.1001 3148.134 M 4214.1001 3148.134 L 4214.1001 3145.684 M 4209.8101 3144.334 L 4214.1001 3144.334 M 4209.8101 3144.334 L 4209.8101 3141.674 M 4211.8501 3144.334 L 4211.8501 3142.694 M 4214.1001 3144.334 L 4214.1001 3141.674 M 4209.8101 3140.324 L 4214.1001 3137.454 M 4209.8101 3137.454 L 4214.1001 3140.324 M 4215.5401 3132.954 L 4215.5401 3129.274 M 4209.8101 3125.884 L 4212.6701 3127.924 L 4212.6701 3124.854 M 4209.8101 3125.884 L 4214.1001 3125.884 M 4209.8101 3122.484 L 4210.0101 3123.104 L 4210.4201 3123.304 L 4210.8301 3123.304 L 4211.2401 3123.104 L 4211.4501 3122.694 L 4211.6501 3121.874 L 4211.8501 3121.254 L 4212.2601 3120.854 L 4212.6701 3120.644 L 4213.2901 3120.644 L 4213.7001 3120.854 L 4213.9001 3121.054 L 4214.1001 3121.664 L 4214.1001 3122.484 L 4213.9001 3123.104 L 4213.7001 3123.304 L 4213.2901 3123.504 L 4212.6701 3123.504 L 4212.2601 3123.304 L 4211.8501 3122.894 L 4211.6501 3122.284 L 4211.4501 3121.464 L 4211.2401 3121.054 L 4210.8301 3120.854 L 4210.4201 3120.854 L 4210.0101 3121.054 L 4209.8101 3121.664 L 4209.8101 3122.484 M 4209.8101 3117.254 L 4212.6701 3119.294 L 4212.6701 3116.224 M 4209.8101 3117.254 L 4214.1001 3117.254 M 4209.8101 3113.654 L 4210.0101 3114.264 L 4210.6301 3114.674 L 4211.6501 3114.874 L 4212.2601 3114.874 L 4213.2901 3114.674 L 4213.9001 3114.264 L 4214.1001 3113.654 L 4214.1001 3113.244 L 4213.9001 3112.624 L 4213.2901 3112.214 L 4212.2601 3112.014 L 4211.6501 3112.014 L 4210.6301 3112.214 L 4210.0101 3112.624 L 4209.8101 3113.244 L 4209.8101 3113.654 M 4209.8101 3108.204 L 4209.8101 3110.254 L 4211.6501 3110.454 L 4211.4501 3110.254 L 4211.2401 3109.644 L 4211.2401 3109.024 L 4211.4501 3108.414 L 4211.8501 3108.004 L 4212.4701 3107.804 L 4212.8801 3107.804 L 4213.4901 3108.004 L 4213.9001 3108.414 L 4214.1001 3109.024 L 4214.1001 3109.644 L 4213.9001 3110.254 L 4213.7001 3110.454 L 4213.2901 3110.664 M 4212.2601 3106.454 L 4212.2601 3102.764 M 4209.8101 3100.194 L 4210.0101 3100.804 L 4210.6301 3101.214 L 4211.6501 3101.414 L 4212.2601 3101.414 L 4213.2901 3101.214 L 4213.9001 3100.804 L 4214.1001 3100.194 L 4214.1001 3099.784 L 4213.9001 3099.164 L 4213.2901 3098.754 L 4212.2601 3098.554 L 4211.6501 3098.554 L 4210.6301 3098.754 L 4210.0101 3099.164 L 4209.8101 3099.784 L 4209.8101 3100.194 M 4209.8101 3095.974 L 4210.0101 3096.594 L 4210.6301 3097.004 L 4211.6501 3097.204 L 4212.2601 3097.204 L 4213.2901 3097.004 L 4213.9001 3096.594 L 4214.1001 3095.974 L 4214.1001 3095.564 L 4213.9001 3094.954 L 4213.2901 3094.544 L 4212.2601 3094.344 L 4211.6501 3094.344 L 4210.6301 3094.544 L 4210.0101 3094.954 L 4209.8101 3095.564 L 4209.8101 3095.974 M 4209.8101 3091.764 L 4210.0101 3092.374 L 4210.6301 3092.784 L 4211.6501 3092.994 L 4212.2601 3092.994 L 4213.2901 3092.784 L 4213.9001 3092.374 L 4214.1001 3091.764 L 4214.1001 3091.354 L 4213.9001 3090.744 L 4213.2901 3090.334 L 4212.2601 3090.124 L 4211.6501 3090.124 L 4210.6301 3090.334 L 4210.0101 3090.744 L 4209.8101 3091.354 L 4209.8101 3091.764 M 4209.8101 3088.364 L 4209.8101 3086.114 L 4211.4501 3087.344 L 4211.4501 3086.734 L 4211.6501 3086.324 L 4211.8501 3086.114 L 4212.4701 3085.914 L 4212.8801 3085.914 L 4213.4901 3086.114 L 4213.9001 3086.524 L 4214.1001 3087.144 L 4214.1001 3087.754 L 4213.9001 3088.364 L 4213.7001 3088.574 L 4213.2901 3088.774" fill="none"  stroke-width="0.6" c_note="note_name" /></g><g c_partid="part_pcbtext" c_etype="" c_origin="4119.5,3055" c_rotation="0" c_mirror="0" id="gge564" locked="0" layerid="3" c_shapetype="group" ><path c_fontsize="4.5" c_fontfamily="" c_text="USB_OUT" d="M 4119.5 3050.46 L 4119.5 3053.53 L 4119.7 3054.14 L 4120.11 3054.55 L 4120.73 3054.75 L 4121.14 3054.75 L 4121.75 3054.55 L 4122.16 3054.14 L 4122.36 3053.53 L 4122.36 3050.46 M 4126.58 3051.07 L 4126.17 3050.66 L 4125.55 3050.46 L 4124.74 3050.46 L 4124.12 3050.66 L 4123.71 3051.07 L 4123.71 3051.48 L 4123.92 3051.89 L 4124.12 3052.1 L 4124.53 3052.3 L 4125.76 3052.71 L 4126.17 3052.91 L 4126.37 3053.12 L 4126.58 3053.53 L 4126.58 3054.14 L 4126.17 3054.55 L 4125.55 3054.75 L 4124.74 3054.75 L 4124.12 3054.55 L 4123.71 3054.14 M 4127.93 3050.46 L 4127.93 3054.75 M 4127.93 3050.46 L 4129.77 3050.46 L 4130.38 3050.66 L 4130.59 3050.87 L 4130.79 3051.28 L 4130.79 3051.69 L 4130.59 3052.1 L 4130.38 3052.3 L 4129.77 3052.5 M 4127.93 3052.5 L 4129.77 3052.5 L 4130.38 3052.71 L 4130.59 3052.91 L 4130.79 3053.32 L 4130.79 3053.94 L 4130.59 3054.35 L 4130.38 3054.55 L 4129.77 3054.75 L 4127.93 3054.75 M 4132.14 3056.19 L 4135.82 3056.19 M 4138.4 3050.46 L 4137.99 3050.66 L 4137.58 3051.07 L 4137.38 3051.48 L 4137.17 3052.1 L 4137.17 3053.12 L 4137.38 3053.73 L 4137.58 3054.14 L 4137.99 3054.55 L 4138.4 3054.75 L 4139.22 3054.75 L 4139.63 3054.55 L 4140.04 3054.14 L 4140.24 3053.73 L 4140.45 3053.12 L 4140.45 3052.1 L 4140.24 3051.48 L 4140.04 3051.07 L 4139.63 3050.66 L 4139.22 3050.46 L 4138.4 3050.46 M 4141.8 3050.46 L 4141.8 3053.53 L 4142 3054.14 L 4142.41 3054.55 L 4143.02 3054.75 L 4143.43 3054.75 L 4144.05 3054.55 L 4144.45 3054.14 L 4144.66 3053.53 L 4144.66 3050.46 M 4147.44 3050.46 L 4147.44 3054.75 M 4146.01 3050.46 L 4148.87 3050.46" fill="none"  stroke-width="0.6" c_note="note_pre" /></g><path d="M 4115.7295 3108.3425 A 0.7874 0.7874 0 0 1 4114.9421 3107.5551" locked="0"  fill="none" stroke-width="1" c_helper_type="arc2" net="" layerid="3" id="gge105" /><path d="M 4123.6035 3108.3425 A 0.7874 0.7874 0 0 0 4124.3909 3107.5551" locked="0"  fill="none" stroke-width="1" c_helper_type="arc2" net="" layerid="3" id="gge108" /><path d="M 4115.7295 3088.6574 A 0.7874 0.7874 0 0 0 4114.9421 3089.4448" locked="0"  fill="none" stroke-width="1" c_helper_type="arc2" net="" layerid="3" id="gge111" /><path d="M 4123.6035 3088.6574 A 0.7874 0.7874 0 0 1 4124.3909 3089.4448" locked="0"  fill="none" stroke-width="1" c_helper_type="arc2" net="" layerid="3" id="gge114" /><path d="M 4116.109 3077.1307 A 0.6 0.6 0 0 0 4116.709 3077.7307" locked="0"  fill="none" stroke-width="0.6" c_helper_type="arc2" net="" layerid="3" id="gge204" /><path d="M 4122.624 3077.7307 A 0.6 0.6 0 0 0 4123.224 3077.1307" locked="0"  fill="none" stroke-width="0.6" c_helper_type="arc2" net="" layerid="3" id="gge207" /><path d="M 4116.109 3062.8693 A 0.6 0.6 0 0 1 4116.709 3062.2693" locked="0"  fill="none" stroke-width="0.6" c_helper_type="arc2" net="" layerid="3" id="gge210" /><path d="M 4122.624 3062.2693 A 0.6 0.6 0 0 1 4123.224 3062.8693" locked="0"  fill="none" stroke-width="0.6" c_helper_type="arc2" net="" layerid="3" id="gge213" /><path d="M 4078.366 3098.1189 A 0.394 0.394 0 1 0 4078.349 3098.1179" locked="0"  fill="none" stroke-width="0.787" c_helper_type="arc2" net="" layerid="3" id="gge378" /><polyline points="4047.559 3046.544 4169.606 3046.544 4169.606 3125.284 4047.559 3125.284 4047.559 3046.544" stroke-width="1"  stroke-linecap="round" fill="none" layerid="10" net="" id="gge1425" locked="0" /><polyline points="4088.9 3096.2 4092.1 3096.2" stroke-width="1"  stroke-linecap="round" fill="none" layerid="12" net="" id="gge285" locked="0" /><polyline points="4088.9 3100.8 4092.1 3100.8" stroke-width="1"  stroke-linecap="round" fill="none" layerid="12" net="" id="gge288" locked="0" /><polyline points="4047.461 3054.4179 4047.461 3117.4099" stroke-width="0.5"  stroke-linecap="round" fill="none" layerid="12" net="" id="gge363" locked="0" /><polyline points="4061.437 3108.9449 4061.437 3062.8829 3987.618 3062.8829 3987.618 3108.9449 4061.437 3108.9449" stroke-width="0.5"  stroke-linecap="round" fill="none" layerid="12" net="" id="gge366" locked="0" /><polyline points="4075.61 3067.2129 4064.783 3067.2129 4064.783 3058.7489 4050.217 3058.7489 4050.217 3061.5049 3986.634 3061.5049 3986.634 3110.1269 4050.217 3110.1269 4050.217 3113.0789 4064.783 3113.0789 4064.783 3104.6149 4075.61 3104.6149 4075.61 3067.2129" stroke-width="0.197"  stroke-linecap="round" fill="none" layerid="12" net="" id="gge372" locked="0" /><g c_partid="part_pcbtext" c_etype="" c_origin="4049.626,3106.521" c_rotation="270" c_mirror="0" id="gge546" locked="0" layerid="12" c_shapetype="group" ><path c_fontsize="2.48" c_fontfamily="" c_text="PCB-EDGE" d="M 4052.13 3106.5239 L 4049.76 3106.5239 M 4052.13 3106.5239 L 4052.13 3107.5339 L 4052.02 3107.8739 L 4051.9 3107.9839 L 4051.68 3108.1039 L 4051.34 3108.1039 L 4051.11 3107.9839 L 4051 3107.8739 L 4050.89 3107.5339 L 4050.89 3106.5239 M 4051.56 3110.5339 L 4051.79 3110.4239 L 4052.02 3110.1939 L 4052.13 3109.9739 L 4052.13 3109.5239 L 4052.02 3109.2939 L 4051.79 3109.0639 L 4051.56 3108.9539 L 4051.23 3108.8439 L 4050.66 3108.8439 L 4050.32 3108.9539 L 4050.1 3109.0639 L 4049.87 3109.2939 L 4049.76 3109.5239 L 4049.76 3109.9739 L 4049.87 3110.1939 L 4050.1 3110.4239 L 4050.32 3110.5339 M 4052.13 3111.2739 L 4049.76 3111.2739 M 4052.13 3111.2739 L 4052.13 3112.2939 L 4052.02 3112.6339 L 4051.9 3112.7439 L 4051.68 3112.8539 L 4051.45 3112.8539 L 4051.23 3112.7439 L 4051.11 3112.6339 L 4051 3112.2939 M 4051 3111.2739 L 4051 3112.2939 L 4050.89 3112.6339 L 4050.78 3112.7439 L 4050.55 3112.8539 L 4050.21 3112.8539 L 4049.99 3112.7439 L 4049.87 3112.6339 L 4049.76 3112.2939 L 4049.76 3111.2739 M 4050.78 3113.6039 L 4050.78 3115.6339 M 4052.13 3116.3739 L 4049.76 3116.3739 M 4052.13 3116.3739 L 4052.13 3117.8339 M 4051 3116.3739 L 4051 3117.2739 M 4049.76 3116.3739 L 4049.76 3117.8339 M 4052.13 3118.5839 L 4049.76 3118.5839 M 4052.13 3118.5839 L 4052.13 3119.3739 L 4052.02 3119.7139 L 4051.79 3119.9339 L 4051.56 3120.0439 L 4051.23 3120.1639 L 4050.66 3120.1639 L 4050.32 3120.0439 L 4050.1 3119.9339 L 4049.87 3119.7139 L 4049.76 3119.3739 L 4049.76 3118.5839 M 4051.56 3122.5939 L 4051.79 3122.4839 L 4052.02 3122.2539 L 4052.13 3122.0339 L 4052.13 3121.5839 L 4052.02 3121.3539 L 4051.79 3121.1339 L 4051.56 3121.0139 L 4051.23 3120.9039 L 4050.66 3120.9039 L 4050.32 3121.0139 L 4050.1 3121.1339 L 4049.87 3121.3539 L 4049.76 3121.5839 L 4049.76 3122.0339 L 4049.87 3122.2539 L 4050.1 3122.4839 L 4050.32 3122.5939 L 4050.66 3122.5939 M 4050.66 3122.0339 L 4050.66 3122.5939 M 4052.13 3123.3439 L 4049.76 3123.3439 M 4052.13 3123.3439 L 4052.13 3124.8039 M 4051 3123.3439 L 4051 3124.2439 M 4049.76 3123.3439 L 4049.76 3124.8039" fill="none"  stroke-width="0.591"  /></g></svg>