M48
METRIC,LZ,000.000
;FILE_FORMAT=3:3
;TYPE=PLATED
;Layer: Drill PTH
;EasyEDA v6.4.20.6, 2021-08-19T13:16:06+10:00
;9d4605ca98984d129178a5d3578e3ea3,9bf960991b9d4efa812b5d32ee5e6833,10
;Gerber Generator version 0.2
;Holesize 1 = 0.306 mm
T01C0.306
;Holesize 2 = 0.702 mm
T02C0.702
;Holesize 3 = 2.301 mm
T03C2.301
;Holesize 4 = 3.351 mm
T04C3.351
%
G05
G90
T01
X049122Y050331
X028067Y059055
X043265Y069171
X022571Y065500
T02
X053000Y063500
X053001Y065999
X053001Y068001
X053001Y070500
X051500Y062999
X051500Y065001
X051500Y067000
X051500Y068999
X051500Y071000
X016000Y070500
X015999Y068001
X015999Y065999
X015999Y063500
X017500Y071000
X017500Y068999
X017500Y067000
X017500Y065001
X017500Y062999
T03
X055000Y059931
X055000Y074069
X014000Y074069
X014000Y059931
T04
X012000Y082000
X056000Y082000
X056000Y048000
X012000Y048000
M30
