G04 Layer: TopSilkLayer*
G04 EasyEDA v6.4.20.6, 2021-08-19T13:16:06+10:00*
G04 9d4605ca98984d129178a5d3578e3ea3,9bf960991b9d4efa812b5d32ee5e6833,10*
G04 Gerber Generator version 0.2*
G04 Scale: 100 percent, Rotated: No, Reflected: No *
G04 Dimensions in millimeters *
G04 leading zeros omitted , absolute positions ,4 integer and 5 decimal *
%FSLAX45Y45*%
%MOMM*%

%ADD10C,0.2540*%
%ADD22C,0.1501*%
%ADD23C,0.1524*%

%LPD*%
D23*
X1883587Y5177977D02*
G01*
X1873173Y5172643D01*
X1862759Y5162229D01*
X1857679Y5152069D01*
X1857679Y5131241D01*
X1862759Y5120827D01*
X1873173Y5110413D01*
X1883587Y5105079D01*
X1899335Y5099999D01*
X1925243Y5099999D01*
X1940737Y5105079D01*
X1951151Y5110413D01*
X1961565Y5120827D01*
X1966645Y5131241D01*
X1966645Y5152069D01*
X1961565Y5162229D01*
X1951151Y5172643D01*
X1940737Y5177977D01*
X1878507Y5212267D02*
G01*
X1873173Y5222681D01*
X1857679Y5238175D01*
X1966645Y5238175D01*
X4154507Y5029629D02*
G01*
X4164921Y5034963D01*
X4175335Y5045377D01*
X4180415Y5055537D01*
X4180415Y5076365D01*
X4175335Y5086779D01*
X4164921Y5097193D01*
X4154507Y5102527D01*
X4138759Y5107607D01*
X4112851Y5107607D01*
X4097357Y5102527D01*
X4086943Y5097193D01*
X4076529Y5086779D01*
X4071449Y5076365D01*
X4071449Y5055537D01*
X4076529Y5045377D01*
X4086943Y5034963D01*
X4097357Y5029629D01*
X4154507Y4990259D02*
G01*
X4159587Y4990259D01*
X4170001Y4984925D01*
X4175335Y4979845D01*
X4180415Y4969431D01*
X4180415Y4948603D01*
X4175335Y4938189D01*
X4170001Y4933109D01*
X4159587Y4927775D01*
X4149173Y4927775D01*
X4138759Y4933109D01*
X4123265Y4943523D01*
X4071449Y4995339D01*
X4071449Y4922695D01*
X4483590Y5177977D02*
G01*
X4473176Y5172643D01*
X4462762Y5162229D01*
X4457682Y5152069D01*
X4457682Y5131241D01*
X4462762Y5120827D01*
X4473176Y5110413D01*
X4483590Y5105079D01*
X4499338Y5099999D01*
X4525246Y5099999D01*
X4540740Y5105079D01*
X4551154Y5110413D01*
X4561568Y5120827D01*
X4566648Y5131241D01*
X4566648Y5152069D01*
X4561568Y5162229D01*
X4551154Y5172643D01*
X4540740Y5177977D01*
X4457682Y5222681D02*
G01*
X4457682Y5279831D01*
X4499338Y5248589D01*
X4499338Y5264083D01*
X4504418Y5274497D01*
X4509498Y5279831D01*
X4525246Y5284911D01*
X4535660Y5284911D01*
X4551154Y5279831D01*
X4561568Y5269417D01*
X4566648Y5253669D01*
X4566648Y5238175D01*
X4561568Y5222681D01*
X4556488Y5217347D01*
X4546074Y5212267D01*
X2999999Y5842314D02*
G01*
X2999999Y5733348D01*
X2999999Y5733348D02*
G01*
X3062229Y5733348D01*
X3096519Y5821486D02*
G01*
X3106933Y5826820D01*
X3122681Y5842314D01*
X3122681Y5733348D01*
X6819021Y6627355D02*
G01*
X6829435Y6637769D01*
X6834515Y6653263D01*
X6834515Y6674091D01*
X6829435Y6689585D01*
X6819021Y6699999D01*
X6808607Y6699999D01*
X6798193Y6694919D01*
X6792859Y6689585D01*
X6787779Y6679171D01*
X6777365Y6647929D01*
X6772285Y6637769D01*
X6766951Y6632435D01*
X6756537Y6627355D01*
X6741043Y6627355D01*
X6730629Y6637769D01*
X6725549Y6653263D01*
X6725549Y6674091D01*
X6730629Y6689585D01*
X6741043Y6699999D01*
X6834515Y6593065D02*
G01*
X6725549Y6593065D01*
X6834515Y6520167D02*
G01*
X6761871Y6593065D01*
X6787779Y6566903D02*
G01*
X6725549Y6520167D01*
X6834515Y6449555D02*
G01*
X6725549Y6449555D01*
X6834515Y6485877D02*
G01*
X6834515Y6413233D01*
X6813687Y6378943D02*
G01*
X6819021Y6368529D01*
X6834515Y6353035D01*
X6725549Y6353035D01*
X80977Y6772643D02*
G01*
X70563Y6762229D01*
X65483Y6746735D01*
X65483Y6725907D01*
X70563Y6710413D01*
X80977Y6699999D01*
X91391Y6699999D01*
X101805Y6705079D01*
X107139Y6710413D01*
X112219Y6720827D01*
X122633Y6752069D01*
X127713Y6762229D01*
X133047Y6767563D01*
X143461Y6772643D01*
X158955Y6772643D01*
X169369Y6762229D01*
X174449Y6746735D01*
X174449Y6725907D01*
X169369Y6710413D01*
X158955Y6699999D01*
X65483Y6806933D02*
G01*
X174449Y6806933D01*
X65483Y6879831D02*
G01*
X138127Y6806933D01*
X112219Y6833095D02*
G01*
X174449Y6879831D01*
X65483Y6950443D02*
G01*
X174449Y6950443D01*
X65483Y6914121D02*
G01*
X65483Y6986765D01*
X91391Y7026389D02*
G01*
X86311Y7026389D01*
X75897Y7031469D01*
X70563Y7036549D01*
X65483Y7046963D01*
X65483Y7067791D01*
X70563Y7078205D01*
X75897Y7083539D01*
X86311Y7088619D01*
X96725Y7088619D01*
X107139Y7083539D01*
X122633Y7073125D01*
X174449Y7021055D01*
X174449Y7093699D01*
X1199997Y8721725D02*
G01*
X1199997Y8643746D01*
X1205077Y8628253D01*
X1215491Y8617838D01*
X1231239Y8612759D01*
X1241653Y8612759D01*
X1257147Y8617838D01*
X1267561Y8628253D01*
X1272641Y8643746D01*
X1272641Y8721725D01*
X1306931Y8700896D02*
G01*
X1317345Y8706230D01*
X1333093Y8721725D01*
X1333093Y8612759D01*
X5599988Y8721725D02*
G01*
X5599988Y8643746D01*
X5605068Y8628253D01*
X5615482Y8617838D01*
X5631230Y8612759D01*
X5641644Y8612759D01*
X5657138Y8617838D01*
X5667552Y8628253D01*
X5672632Y8643746D01*
X5672632Y8721725D01*
X5712256Y8695817D02*
G01*
X5712256Y8700896D01*
X5717336Y8711311D01*
X5722670Y8716645D01*
X5733084Y8721725D01*
X5753658Y8721725D01*
X5764072Y8716645D01*
X5769406Y8711311D01*
X5774486Y8700896D01*
X5774486Y8690483D01*
X5769406Y8680069D01*
X5758992Y8664575D01*
X5706922Y8612759D01*
X5779820Y8612759D01*
X5599988Y5321706D02*
G01*
X5599988Y5243728D01*
X5605068Y5228234D01*
X5615482Y5217820D01*
X5631230Y5212740D01*
X5641644Y5212740D01*
X5657138Y5217820D01*
X5667552Y5228234D01*
X5672632Y5243728D01*
X5672632Y5321706D01*
X5717336Y5321706D02*
G01*
X5774486Y5321706D01*
X5743498Y5280050D01*
X5758992Y5280050D01*
X5769406Y5274970D01*
X5774486Y5269890D01*
X5779820Y5254142D01*
X5779820Y5243728D01*
X5774486Y5228234D01*
X5764072Y5217820D01*
X5748578Y5212740D01*
X5733084Y5212740D01*
X5717336Y5217820D01*
X5712256Y5222900D01*
X5706922Y5233314D01*
X1199997Y5321706D02*
G01*
X1199997Y5243728D01*
X1205077Y5228234D01*
X1215491Y5217820D01*
X1231239Y5212740D01*
X1241653Y5212740D01*
X1257147Y5217820D01*
X1267561Y5228234D01*
X1272641Y5243728D01*
X1272641Y5321706D01*
X1359001Y5321706D02*
G01*
X1306931Y5249062D01*
X1384909Y5249062D01*
X1359001Y5321706D02*
G01*
X1359001Y5212740D01*
D22*
X2189995Y5060000D02*
G01*
X2189995Y4930000D01*
X2009995Y4930000D01*
X2009995Y5060000D01*
X2189995Y5139999D02*
G01*
X2189995Y5269999D01*
X2009995Y5269999D01*
X2009995Y5139999D01*
D10*
X3999999Y4849997D02*
G01*
X3800000Y4849997D01*
X4019999Y5199999D02*
G01*
X4019999Y5319999D01*
X3780000Y5199999D02*
G01*
X3780000Y5319999D01*
X4019999Y4999997D02*
G01*
X4019999Y4880000D01*
X3780000Y4999997D02*
G01*
X3780000Y4880000D01*
X3999999Y5349999D02*
G01*
X3800000Y5349999D01*
X4019999Y5329999D02*
G01*
X4019999Y5319999D01*
X3780000Y5329999D02*
G01*
X3780000Y5319999D01*
X4019999Y4869997D02*
G01*
X4019999Y4880000D01*
X3780000Y4869997D02*
G01*
X3780000Y4880000D01*
D23*
X4609637Y5281119D02*
G01*
X4609637Y5140119D01*
X4790358Y5140119D02*
G01*
X4790358Y5281119D01*
X4775118Y5296359D02*
G01*
X4624877Y5296359D01*
X4609637Y4918880D02*
G01*
X4609637Y5059880D01*
X4790358Y5059880D02*
G01*
X4790358Y4918880D01*
X4775118Y4903640D02*
G01*
X4624877Y4903640D01*
D10*
X2817119Y5686358D02*
G01*
X3182879Y5686358D01*
X3182879Y5686358D02*
G01*
X3182879Y5513638D01*
X3182879Y5513638D02*
G01*
X2817119Y5513638D01*
X2817119Y5513638D02*
G01*
X2817119Y5686358D01*
X5017399Y5988799D02*
G01*
X6693799Y5988799D01*
X6693799Y7411199D01*
X5017399Y7411199D01*
X5017399Y5988799D01*
X5880999Y6953999D02*
G01*
X6388999Y7030199D01*
X6388999Y7131799D01*
X5880999Y7207999D01*
X5880999Y6191999D02*
G01*
X6388999Y6268199D01*
X6388999Y6369799D01*
X5880999Y6445999D01*
X1882599Y7411199D02*
G01*
X206199Y7411199D01*
X206199Y5988799D01*
X1882599Y5988799D01*
X1882599Y7411199D01*
X1018999Y6445999D02*
G01*
X510999Y6369799D01*
X510999Y6268199D01*
X1018999Y6191999D01*
X1018999Y7207999D02*
G01*
X510999Y7131799D01*
X510999Y7030199D01*
X1018999Y6953999D01*
G75*
G01*
X4000000Y5349999D02*
G02*
X4020000Y5330000I0J-19999D01*
G75*
G01*
X3800000Y5349999D02*
G03*
X3780000Y5330000I0J-19999D01*
G75*
G01*
X4000000Y4849998D02*
G03*
X4020000Y4869998I0J20000D01*
G75*
G01*
X3800000Y4849998D02*
G02*
X3780000Y4869998I0J20000D01*
D23*
G75*
G01*
X4790359Y5281120D02*
G03*
X4775119Y5296360I-15240J0D01*
G75*
G01*
X4624878Y5296360D02*
G03*
X4609638Y5281120I0J-15240D01*
G75*
G01*
X4790359Y4918880D02*
G02*
X4775119Y4903640I-15240J0D01*
G75*
G01*
X4624878Y4903640D02*
G02*
X4609638Y4918880I0J15240D01*
M02*
