G04 Layer: BottomLayer*
G04 EasyEDA v6.4.20.6, 2021-08-19T13:16:06+10:00*
G04 9d4605ca98984d129178a5d3578e3ea3,9bf960991b9d4efa812b5d32ee5e6833,10*
G04 Gerber Generator version 0.2*
G04 Scale: 100 percent, Rotated: No, Reflected: No *
G04 Dimensions in millimeters *
G04 leading zeros omitted , absolute positions ,4 integer and 5 decimal *
%FSLAX45Y45*%
%MOMM*%

%ADD10C,0.2540*%
%ADD11C,0.4000*%
%ADD13C,0.6100*%
%ADD18C,3.2000*%
%ADD20C,1.1989*%
%ADD21C,7.0000*%

%LPD*%
D11*
X5300093Y7050018D02*
G01*
X5406265Y6943846D01*
X5406265Y6272321D01*
X4912184Y5778240D01*
X4912184Y5033131D01*
X1599999Y7050018D02*
G01*
X1599999Y7150044D01*
X1600001Y7150044D02*
G01*
X1656842Y7206889D01*
X1787474Y7206889D01*
X2806700Y6187666D01*
X2806700Y5905500D01*
D10*
X5149979Y6299956D02*
G01*
X4943579Y6299956D01*
X4326486Y6917049D01*
X1750011Y6700006D02*
G01*
X2107161Y6700006D01*
X2257148Y6550019D01*
X1750011Y6500108D02*
G01*
X1564896Y6500108D01*
X1497942Y6567063D01*
X1497942Y7139426D01*
X1624967Y7266452D01*
X4783432Y7266452D01*
X5149979Y6899904D01*
D18*
G01*
X5499988Y5993104D03*
G01*
X5499988Y7406868D03*
G36*
X5240055Y6289992D02*
G01*
X5240055Y6409982D01*
X5359943Y6409982D01*
X5359943Y6289992D01*
G37*
D20*
G01*
X5300090Y6599910D03*
G01*
X5300090Y6800062D03*
G01*
X5300090Y7049998D03*
G01*
X5149977Y6299936D03*
G01*
X5149977Y6500088D03*
G01*
X5149977Y6699986D03*
G01*
X5149977Y6899884D03*
G01*
X5149977Y7100036D03*
D18*
G01*
X1399997Y7406868D03*
G01*
X1399997Y5993104D03*
G36*
X1659943Y7110006D02*
G01*
X1659943Y6990016D01*
X1540055Y6990016D01*
X1540055Y7110006D01*
G37*
D20*
G01*
X1599895Y6800062D03*
G01*
X1599895Y6599910D03*
G01*
X1599895Y6349974D03*
G01*
X1750009Y7100036D03*
G01*
X1750009Y6899884D03*
G01*
X1750009Y6699986D03*
G01*
X1750009Y6500088D03*
G01*
X1750009Y6299936D03*
D21*
G01*
X1199997Y8200009D03*
G01*
X5599988Y8200009D03*
G01*
X5599988Y4799990D03*
G01*
X1199997Y4799990D03*
D13*
G01*
X4912182Y5033137D03*
G01*
X2806700Y5905500D03*
G01*
X4326483Y6917054D03*
G01*
X2257145Y6550025D03*
M02*
