G04 Layer: TopLayer*
G04 EasyEDA v6.4.20.6, 2021-08-19T13:16:06+10:00*
G04 9d4605ca98984d129178a5d3578e3ea3,9bf960991b9d4efa812b5d32ee5e6833,10*
G04 Gerber Generator version 0.2*
G04 Scale: 100 percent, Rotated: No, Reflected: No *
G04 Dimensions in millimeters *
G04 leading zeros omitted , absolute positions ,4 integer and 5 decimal *
%FSLAX45Y45*%
%MOMM*%

%ADD10C,0.2540*%
%ADD11C,0.4000*%
%ADD12C,0.2032*%
%ADD13C,0.6100*%
%ADD14R,1.2500X1.0000*%
%ADD15R,1.9000X1.2000*%
%ADD16R,1.3500X1.4100*%
%ADD18C,3.2000*%
%ADD20C,1.1989*%
%ADD21C,7.0000*%

%LPD*%
D12*
X1991613Y8332978D02*
G01*
X1917700Y8139176D01*
X1991613Y8332978D02*
G01*
X2065527Y8139176D01*
X1945386Y8203692D02*
G01*
X2037841Y8203692D01*
X2191004Y8332978D02*
G01*
X2191004Y8139176D01*
X2126488Y8332978D02*
G01*
X2255774Y8332978D01*
X2316734Y8332978D02*
G01*
X2316734Y8139176D01*
X2316734Y8139176D02*
G01*
X2427477Y8139176D01*
X2630677Y8332978D02*
G01*
X2630677Y8194547D01*
X2640075Y8166862D01*
X2658363Y8148320D01*
X2686050Y8139176D01*
X2704591Y8139176D01*
X2732277Y8148320D01*
X2750820Y8166862D01*
X2759963Y8194547D01*
X2759963Y8332978D01*
X2950209Y8305292D02*
G01*
X2931922Y8323834D01*
X2904236Y8332978D01*
X2867152Y8332978D01*
X2839465Y8323834D01*
X2820924Y8305292D01*
X2820924Y8286750D01*
X2830322Y8268462D01*
X2839465Y8259063D01*
X2858008Y8249920D01*
X2913379Y8231378D01*
X2931922Y8222234D01*
X2941065Y8213089D01*
X2950209Y8194547D01*
X2950209Y8166862D01*
X2931922Y8148320D01*
X2904236Y8139176D01*
X2867152Y8139176D01*
X2839465Y8148320D01*
X2820924Y8166862D01*
X3011170Y8332978D02*
G01*
X3011170Y8139176D01*
X3011170Y8332978D02*
G01*
X3094481Y8332978D01*
X3122168Y8323834D01*
X3131311Y8314689D01*
X3140709Y8296147D01*
X3140709Y8277605D01*
X3131311Y8259063D01*
X3122168Y8249920D01*
X3094481Y8240776D01*
X3011170Y8240776D02*
G01*
X3094481Y8240776D01*
X3122168Y8231378D01*
X3131311Y8222234D01*
X3140709Y8203692D01*
X3140709Y8176005D01*
X3131311Y8157463D01*
X3122168Y8148320D01*
X3094481Y8139176D01*
X3011170Y8139176D01*
X3343909Y8332978D02*
G01*
X3343909Y8139176D01*
X3343909Y8332978D02*
G01*
X3463797Y8332978D01*
X3343909Y8240776D02*
G01*
X3417570Y8240776D01*
X3524758Y8332978D02*
G01*
X3524758Y8139176D01*
X3585718Y8332978D02*
G01*
X3585718Y8139176D01*
X3585718Y8139176D02*
G01*
X3696715Y8139176D01*
X3822191Y8332978D02*
G01*
X3822191Y8139176D01*
X3757675Y8332978D02*
G01*
X3886961Y8332978D01*
X3947922Y8332978D02*
G01*
X3947922Y8139176D01*
X3947922Y8332978D02*
G01*
X4067809Y8332978D01*
X3947922Y8240776D02*
G01*
X4021836Y8240776D01*
X3947922Y8139176D02*
G01*
X4067809Y8139176D01*
X4128770Y8332978D02*
G01*
X4128770Y8139176D01*
X4128770Y8332978D02*
G01*
X4212081Y8332978D01*
X4239768Y8323834D01*
X4248911Y8314689D01*
X4258309Y8296147D01*
X4258309Y8277605D01*
X4248911Y8259063D01*
X4239768Y8249920D01*
X4212081Y8240776D01*
X4128770Y8240776D01*
X4193540Y8240776D02*
G01*
X4258309Y8139176D01*
X4461509Y8332978D02*
G01*
X4535170Y8139176D01*
X4609084Y8332978D02*
G01*
X4535170Y8139176D01*
X4670043Y8296147D02*
G01*
X4688586Y8305292D01*
X4716272Y8332978D01*
X4716272Y8139176D01*
X4786629Y8185150D02*
G01*
X4777231Y8176005D01*
X4786629Y8166862D01*
X4795774Y8176005D01*
X4786629Y8185150D01*
X4912106Y8332978D02*
G01*
X4884420Y8323834D01*
X4865877Y8296147D01*
X4856734Y8249920D01*
X4856734Y8222234D01*
X4865877Y8176005D01*
X4884420Y8148320D01*
X4912106Y8139176D01*
X4930647Y8139176D01*
X4958334Y8148320D01*
X4976875Y8176005D01*
X4986020Y8222234D01*
X4986020Y8249920D01*
X4976875Y8296147D01*
X4958334Y8323834D01*
X4930647Y8332978D01*
X4912106Y8332978D01*
D11*
X2099998Y5010017D02*
G01*
X2202538Y5010017D01*
X3899994Y4939990D02*
G01*
X2272565Y4939990D01*
X2202538Y5010017D01*
X3967507Y4939990D02*
G01*
X3899994Y4939990D01*
X3967507Y4939990D02*
G01*
X4035021Y4939990D01*
X4699993Y4997013D02*
G01*
X4092044Y4997013D01*
X4035021Y4939990D01*
X4753764Y4997013D02*
G01*
X4699993Y4997013D01*
X4753764Y4997013D02*
G01*
X4807536Y4997013D01*
X4912184Y5033131D02*
G01*
X4843655Y5033131D01*
X4807536Y4997013D01*
X1599897Y6349994D02*
G01*
X1599897Y6200160D01*
X1801370Y5998687D01*
X1801370Y5308645D01*
X2099998Y5010017D01*
X2099998Y5190002D02*
G01*
X2099998Y5280045D01*
X2906016Y5652536D02*
G01*
X2472489Y5652536D01*
X2099998Y5280045D01*
X2906019Y5652536D02*
G01*
X2806700Y5751852D01*
X2806700Y5905500D01*
X2906016Y5600009D02*
G01*
X2906016Y5652536D01*
X2806700Y5905500D02*
G01*
X2906019Y5806180D01*
X2906019Y5705066D01*
X4699993Y5260004D02*
G01*
X4699993Y5203007D01*
X5299991Y6349994D02*
G01*
X5299991Y6200007D01*
X4699993Y5600009D01*
X4699993Y5260004D01*
X4699993Y5260004D02*
G01*
X4035021Y5260004D01*
X3899994Y5260004D02*
G01*
X4035021Y5260004D01*
X3899994Y5260004D02*
G01*
X3764968Y5260004D01*
X3093976Y5600009D02*
G01*
X3424963Y5600009D01*
X3764968Y5260004D01*
D10*
X5300093Y6599930D02*
G01*
X5407383Y6707220D01*
X5407383Y6825686D01*
X5308018Y6925050D01*
X5274947Y6925050D01*
X5192803Y7007194D01*
X5038244Y7007194D01*
X4831133Y6800082D01*
X1599897Y6800082D01*
X1599897Y6599930D02*
G01*
X1605968Y6593860D01*
X2211351Y6593860D01*
X2230909Y6613418D01*
X4871519Y6613418D01*
X5058183Y6800082D01*
X5300093Y6800082D01*
X1750011Y7100056D02*
G01*
X1933018Y6917049D01*
X4326486Y6917049D01*
X1750011Y6899904D02*
G01*
X1548843Y6899904D01*
X1498069Y6849130D01*
X1498069Y6566936D01*
X1590042Y6474962D01*
X1625043Y6474962D01*
X1707187Y6392819D01*
X1778281Y6392819D01*
X1872084Y6486621D01*
X5136492Y6486621D01*
X5149979Y6500108D01*
X2257148Y6550019D02*
G01*
X4999992Y6550019D01*
X5149979Y6700006D01*
X5149979Y7100056D02*
G01*
X5192803Y7142881D01*
X5340225Y7142881D01*
X5453890Y7029216D01*
X5453890Y6602826D01*
X5293972Y6442908D01*
X5224071Y6442908D01*
X5181196Y6400032D01*
X1850087Y6400032D01*
X1750011Y6299956D01*
D14*
G01*
X2099995Y5009997D03*
G01*
X2099995Y5190007D03*
D15*
G01*
X3899992Y5260009D03*
G01*
X3899992Y4939995D03*
G36*
X4767498Y5132499D02*
G01*
X4632497Y5132499D01*
X4632497Y5273499D01*
X4767498Y5273499D01*
G37*
D16*
G01*
X4699990Y4996992D03*
G36*
X2846075Y5665022D02*
G01*
X2965963Y5665022D01*
X2965963Y5534974D01*
X2846075Y5534974D01*
G37*
G36*
X3034035Y5665022D02*
G01*
X3153923Y5665022D01*
X3153923Y5534974D01*
X3034035Y5534974D01*
G37*
D18*
G01*
X5499988Y5993104D03*
G01*
X5499988Y7406868D03*
G36*
X5240055Y6289992D02*
G01*
X5240055Y6409982D01*
X5359943Y6409982D01*
X5359943Y6289992D01*
G37*
D20*
G01*
X5300090Y6599910D03*
G01*
X5300090Y6800062D03*
G01*
X5300090Y7049998D03*
G01*
X5149977Y6299936D03*
G01*
X5149977Y6500088D03*
G01*
X5149977Y6699986D03*
G01*
X5149977Y6899884D03*
G01*
X5149977Y7100036D03*
D18*
G01*
X1399997Y7406868D03*
G01*
X1399997Y5993104D03*
G36*
X1659943Y7110006D02*
G01*
X1659943Y6990016D01*
X1540055Y6990016D01*
X1540055Y7110006D01*
G37*
D20*
G01*
X1599895Y6800062D03*
G01*
X1599895Y6599910D03*
G01*
X1599895Y6349974D03*
G01*
X1750009Y7100036D03*
G01*
X1750009Y6899884D03*
G01*
X1750009Y6699986D03*
G01*
X1750009Y6500088D03*
G01*
X1750009Y6299936D03*
D21*
G01*
X1199997Y8200009D03*
G01*
X5599988Y8200009D03*
G01*
X5599988Y4799990D03*
G01*
X1199997Y4799990D03*
D13*
G01*
X4912182Y5033137D03*
G01*
X2806700Y5905500D03*
G01*
X4326483Y6917054D03*
G01*
X2257145Y6550025D03*
M02*
